<svg width="447" height="167" xmlns="http://www.w3.org/2000/svg"><path d="M95.27 7.279a.972.972 0 01.155.218l.055.122.003.013.036.028c.035.025.08.052.137.083l.096.047.115.05c.802.338 2.214.57 4.343.629l.362.008.724.006h17.129c.51 0 .93.384.987.878l.007.116v4.496h214.513l2.465.007c39.993.174 67.509 3.845 82.617 11.06 15.367 7.34 24.632 19.888 27.745 37.553l.105.611.012.113c.98 19.04-3.84 34.076-14.48 45.042-10.447 10.77-32.362 16.823-65.793 18.284l-2.06.084-29.667.734a3.98 3.98 0 01-3.683 3.096l-.199.005h-19.719v21.528c0 8.129-6.508 14.739-14.6 14.907l-.316.003H15.917c-8.133 0-14.745-6.505-14.914-14.594L1 152.09V85.492c0-8.129 6.508-14.739 14.601-14.907l.316-.003H296.36c8.133 0 14.745 6.505 14.914 14.594l.003.316-.001 23.756h19.72a3.978 3.978 0 013.919 3.293l-.533-.012c54.509 1.456 85.73-6.566 93.667-23.728 7.914-17.113 5.255-32.143-8.017-45.312l-.36-.354-.326-.243c-7.032-5.169-17.879-8.761-32.533-10.741l-.789-.105c-14.8-1.924-38.655-2.986-71.54-3.182l-4.202-.02H119.42v3.992c0 .51-.384.93-.878.988l-.116.006-17.207-.003c-1.238-.097-2.104-.097-2.55-.014-1.06.198-1.652.539-2.814 1.917l-.18.214-.59.728c-3.225 3.865-7.936 5.84-14.068 5.937l-.475.004-50.587-.857c-1.624 0-3.035-.922-3.695-2.264l-.08.255c-1.921-.6-3.165-2.27-3.797-4.947l-18.19-.002c-1.681 0-3.092-1.223-3.187-2.81L1 31.816V9.948c0-1.613 1.352-2.891 3.014-2.977l.179-.005h18.574c.63-1.623 1.602-2.91 2.92-3.848l.242-.166.051.078c.424-1.675 1.94-2.926 3.763-3.017l.211-.005h50.57c5.118-.174 10.041 2.276 14.746 7.27zM296.359 72.57H15.917c-7.036 0-12.76 5.619-12.924 12.613l-.004.309v66.598c0 7.033 5.622 12.754 12.619 12.918l.31.004h280.44c7.037 0 12.76-5.619 12.925-12.613l.004-.309-.001-.63h-4.049a3.978 3.978 0 01-3.58-2.242c-4.082-8.419-6.117-18.564-6.117-30.427 0-11.806 1.85-21.9 5.56-30.279a3.978 3.978 0 013.433-2.361l.205-.005 4.548-.001v-.653c0-7.033-5.62-12.754-12.618-12.918l-.31-.004zm12.927 15.563h-4.548c-.787 0-1.5.464-1.819 1.184-3.59 8.106-5.39 17.93-5.39 29.474 0 11.58 1.976 21.43 5.918 29.56.309.637.93 1.058 1.628 1.114l.162.007h4.049V88.133zM109.595 117.77c1.822-1.01 4.199-1.04 4.397.25.198 1.29-1.15 1.63-1.436 1.63a4.081 4.081 0 00-2.971 2.11c-.753 1.41-.09 4.1 3.397 5 2.97.77 5.15-.88 5.605-.56.386.27-.04 1.21-1.545 1.94l-.33.146a8.12 8.12 0 01-3.156.624c-3.951 0-7.16-2.72-7.16-6.08a5.925 5.925 0 013.199-5.06zm201.68-6.534v17.338h19.72c1.04 0 1.894-.798 1.981-1.815a.992.992 0 01.006-.566l.001-12.968a1.989 1.989 0 00-1.84-1.983l-.149-.005-19.719-.001zm-201.858-2.016c2.317-.22 2.327 2.64 7.07 2.78 3.111-.114 5.978 1.696 7.24 4.57 1.306 2.87.227 5 .762 6.55.534 1.55 1.673 1.86 1.743 3.21a1.805 1.805 0 01-1.615 1.9 2.172 2.172 0 01-2.228-1.07 7.158 7.158 0 01-.92-4.73c.148-1.95 0-4.23-.902-5.43a5.157 5.157 0 00-3.882-2.14c-2.337-.1-5.367.2-7.714-1.4-2.347-1.6-1.416-4.1.446-4.24zm10.002-93.259v10.895h190.866l4.212.02c32.615.195 56.378 1.24 71.309 3.138l.473.06c15.363 1.998 26.778 5.726 34.251 11.222l.39.29.093.08c14.228 13.852 17.188 29.918 8.84 47.97-8.373 18.104-40 26.293-94.879 24.897l-.002 10.936 29.508-.73c34.109-1.28 56.285-7.245 66.489-17.764 10.094-10.404 14.752-24.661 13.955-42.837l-.032-.661-.093-.542c-2.968-16.844-11.661-28.764-26.13-35.853l-.512-.248c-14.773-7.055-42.056-10.694-81.778-10.866l-2.447-.007H119.419zm39.195 97.769c.06.03 3.407-.08 5.447 1.9v.04a5.136 5.136 0 011.525 3.84 5.106 5.106 0 01-1.525 3.84 8.04 8.04 0 01-5.278 1.81h-6.11v-2h1.217v-7.43h-1.218v-2h5.942zm18.132-.73l6.715 11-1.654 1-1.535-2.51h-7.269L171.36 125l-1.604-1 6.991-11zm-35.967 0l6.724 11-1.664 1-1.535-2.51h-7.268L135.43 125l-1.634-1 6.982-11zm59.586 0l6.714 11-1.654 1-5.09-8.36-2.97 4.67-2.863-4.67-5.318 8.36-1.653-1 6.991-11 2.872 4.67 2.97-4.67zm-81.986 7.72c1.168.45.495 2.88-2.476 3.56-2.565.58-4.397-.94-4.04-1.5.356-.56 1.198.27 3.188-.06 1.98-.34 2.16-2.45 3.328-2zm40.235-4.95h-2.773v7.42h2.792c.377.007 2.76.009 4.09-1.27.592-.596.92-1.403.92-2.24l-.008-.195.004-.183a3.196 3.196 0 00-.925-2.212c-1.426-1.39-4.07-1.32-4.1-1.32zm-17.865.93l-2.456 3.86h4.813l-2.357-3.86zm35.958-.04l-2.456 3.86 4.823.04-2.367-3.9zm-60.27.93a1.1 1.1 0 01.922 1.19c.065.59-.34 1.127-.921 1.22-.535 0-.911-.51-.911-1.19 0-.68.406-1.22.91-1.22zM81.228 1.991l.001 38.626c5.438-.13 9.515-1.864 12.307-5.191l.232-.285.405-.497c1.564-1.882 2.537-2.488 4.131-2.785.607-.113 1.504-.122 2.669-.041l.324.024h16.134V10.47h-16.134c-4.682 0-6.968-.696-7.577-1.857l-.045-.095-.024-.057-.163-.17c-3.885-4.012-7.82-6.09-11.848-6.288l-.367-.013h-.045zm-1.989.005H29.954c-1.116 0-2.018.819-2.097 1.84l-.006.148V37.78c0 1.04.85 1.906 1.96 1.983l.16.005 49.267.834V1.996zm-53.377 3.62c-1.262 1.417-1.93 3.53-1.985 6.392l-.003.38v17.303c0 4.056.706 6.565 1.988 7.652V5.616zm-3.665 3.338H4.193c-.64 0-1.134.408-1.197.89l-.007.104v21.868c0 .49.451.931 1.069.988l.135.006 17.852.001a26.968 26.968 0 01-.159-2.743l-.002-.377V12.389c0-1.245.104-2.391.312-3.435zm30.56 8.1l.735.496L50.279 23l-3.12-5.45.78-.496.734 1.239h3.35l.733-1.239zm-8.259 0l.78.496L42.02 23l-1.331-2.329L39.312 23l-3.12-5.45.78-.496 2.34 4.162 1.377-2.328 1.33 2.328 2.478-4.162zm24.915 0l.78.496L66.935 23l-3.12-5.45.78-.496.688 1.239h3.35l.78-1.239zm-10.828-.05h2.844v.992h-.55v3.666h.55v.991h-2.753c-.045-.05-1.56.05-2.523-.99-.459-.496-.734-1.19-.688-1.884-.046-.693.229-1.387.688-1.882.688-.595 1.56-.942 2.432-.892zm-1.882 1.586c-.229.298-.367.743-.367 1.19 0 .445.138.891.413 1.189.609.657 1.753.647 1.872.644h1.294v-3.667H58.63c-.046 0-1.24-.05-1.928.644zm-5.276.644h-2.249l1.102 1.933 1.147-1.933zm16.702 0H65.88l1.101 1.933 1.148-1.933z" fill="#FFF"/></svg>