<svg width="438" height="39" xmlns="http://www.w3.org/2000/svg"><path d="M297.281 0c.954 0 1.815.548 2.213 1.394l.07.161.993 2.58c.102.265.187.537.254.812H301V6h1v4h18.3c1.656.034 2.815.736 3.356 2.006l.114-.006h40.84l2.239.026c18.163.22 33.216.692 45.16 1.419l1.448.09c12.987.83 19.616 3.47 19.533 8.392l-.005.132.01.188c.179 5.008-4.252 8.01-12.853 9.106l-.845.1c-5.416.595-44.474 1.018-117.292 1.27L302 38H119.307c-.539.612-1.343 1-2.242 1l-16.232-.004c-1.994-.187-3.47-.394-4.443-.63l-.117-.026c-.733-.145-2.08-.152-4.046-.002l-.678.056H32.935a3.013 3.013 0 01-1.496-.393L12.897 38c-2.374 0-3.845-.84-3.897-2.59V32H7.91c-1.007 0-1.832-.816-1.905-1.85L6 30v-7c0-1.105.855-2 1.91-2h1.099l.001-8.424-.01-.009.01-.012v-2.25a21.39 21.39 0 01.093-2.75 1.17 1.17 0 01.152-1.204c.11-.714.257-1.43.44-2.144.58-2.277 2.142-3.583 4.549-3.788l.252-.017h275.052l.269-.068c.818-.191 1.687-.3 2.608-.327l.464-.007h4.392zM117.065 16.88H101.85c-2.629.016-4.246.236-4.609.515l-.12.079c-1.557.87-3.493 1.06-5.77.604l-.288-.055c-1.953-.354-4.645-.497-8.08-.422H83v18.917l8.458.001c2.44-.22 4.164-.23 5.237-.014l.173.038.178.042c.744.165 1.823.322 3.18.465l.702.07h16.137c.54 0 .978-.42.978-.94v-3.86a.953.953 0 010-.563l-.001-10.464a1.023 1.023 0 010-.584l.001-2.889c0-.519-.438-.94-.978-.94zM81 17.6H32.935c-.54 0-.978.421-.978.94v17.034c0 .52.438.94.978.94L81 36.518V17.601zM120.005 33L120 36.016h180.053l.006-3.286c-46.477.158-106.486.248-180.054.27zm-94.865-.998L10.916 32v3.256c-.01.44.418.718 1.78.742l.201.002h15.485l-.05-.072c-1.771-.362-2.834-1.732-3.192-3.926zm4.824-12.239l-.003.122-.002 14.888a.38.38 0 00.041.166V19.525c-.019.072-.03.152-.036.238zm-1.881-.627l-.08.032c-.573.26-.901.838-1.009 1.832H27v10.185c.112 1.241.446 2.032 1 2.454V19.885c0-.266.028-.516.083-.75zm396.906-1.985l-.003.021a.996.996 0 01-.584.755l-.352.144c-4.504 1.759-14.884 2.735-31.296 2.978l-2.026.026L120 21.996v9.077l48.363-.025c159.016-.125 242.72-.63 250.72-1.508 8.258-.908 12.087-3.35 11.968-7.216l-.01-.198v-.11c.103-2.038-1.889-3.694-6.052-4.865zM7.909 23v7l17.094-.001v-7L16 23H7.91zm3.04-8.445V21h2.956c-.349-2.347-1.33-4.49-2.954-6.445zm.026-6.065l-.007.097c-.02.374-.03.749-.03 1.125l.01.564.001 1.363c2.827 2.71 4.479 5.84 4.926 9.362L25.036 21c.223-2.468 1.468-3.907 3.655-3.996l.217-.004-.001.76c.396-.34.914-.585 1.54-.721a2.976 2.976 0 012.488-1.317H82.96c3.72-.082 6.645.088 8.788.516l.32.06c1.688.29 3.034.13 4.069-.449l-.04.02.018-.011c.813-.55 2.422-.799 4.998-.849l.694-.008L117.065 15c1.621 0 2.935 1.262 2.935 2.82v2.171l174.018-.592c.202-3.257 2.054-6.003 5.478-8.184l.346-.215.158.222V9.236c-3.2 1.792-7.594 2.702-13.184 2.761l-.584.003c-3.545 0-29.21-.086-76.996-.257l-179.32-.657c-5.503-.001-9.607-.3-12.335-.908-2.238-.497-4.44-1.06-6.606-1.688zm285.151 10.903l3.874-.014v-6.106c-2.418 1.728-3.69 3.754-3.874 6.12zm24.157-7.341H302v7.32l20.126-.069v-5.41c0-1.24-.459-1.767-1.673-1.835l-.17-.006zm44.316 1.874L324 13.925v5.372l66.715-.226 1.994-.026c15.053-.223 24.984-1.073 29.673-2.509-2.361-.465-5.21-.817-8.557-1.046l-1.936-.123c-11.91-.724-26.931-1.196-45.055-1.416l-2.235-.025zM14.548 2.317c-1.658.088-2.583.826-2.974 2.36a20.776 20.776 0 00-.353 1.656l-.99-.294c2.526.766 5.104 1.442 7.734 2.027 2.486.553 6.293.844 11.402.864l251.056.902c3.07.009 5.006.013 5.809.013 5.937 0 10.411-.962 13.418-2.844L297.04 7c-1.252 0-2.67-.3-4.264-.893a89.616 89.616 0 00-3.501-1.247c-1.254-.418-2.009-1.31-2.216-2.541L14.548 2.317zm282.733-.4h-4.392c-.946 0-1.82.094-2.621.281l-.34.086-.126.035h-.688c.14.28.39.461.766.586 1.21.404 2.403.828 3.571 1.272 1.262.47 2.368.722 3.311.764l.279.006h1.75l-.046-.13-.993-2.58a.503.503 0 00-.383-.312l-.088-.008z" fill="#FFF"/></svg>