<svg width="450" height="37" xmlns="http://www.w3.org/2000/svg"><path d="M306.575 0a4.74 4.74 0 014.732 4.526l.005.218-.001 2.151.082.087-.082.078v1.801h19.041a3.792 3.792 0 013.764 3.348l79.366.308 13.54.262c5.926.08 9.66 1.33 11.136 3.936 1.489 2.629.998 5.139-1.428 7.28-1.66 1.294-5.024 2.014-10.19 2.259l-1.043.043c-5.267.19-14.286.186-27.056-.01l-.713-.012h-63.67a3.793 3.793 0 01-3.516 2.995l-.19.005-19.041-.001v1.118l.054.049-.054.061.001 1.754a4.74 4.74 0 01-4.52 4.74l-.217.004H15.737a4.74 4.74 0 01-4.732-4.526L11 32.256V4.744a4.74 4.74 0 014.52-4.74L15.737 0h290.838zm0 1.897H15.737A2.844 2.844 0 0012.9 4.57l-.005.174-.001 1.15.041.036c4.424 3.997 6.673 8.191 6.673 12.57 0 4.373-2.244 8.72-6.664 13.036l-.05.047v.673a2.845 2.845 0 002.67 2.841l.173.006h290.838a2.844 2.844 0 002.837-2.673l.005-.174v-1.019c-4.202-3.904-6.337-7.996-6.337-12.263 0-4.264 2.133-8.502 6.337-12.712V4.744a2.844 2.844 0 00-2.842-2.847zM106.683 8.538a3.792 3.792 0 013.784 3.6l.005.195v13.282a3.793 3.793 0 01-3.594 3.79l-.195.005H69.736a3.792 3.792 0 01-3.784-3.6l-.005-.195V12.333a3.793 3.793 0 013.594-3.79l.195-.005h36.947zm56.841 0a3.792 3.792 0 013.785 3.6l.005.195v13.282a3.793 3.793 0 01-3.595 3.79l-.195.005h-36.947a3.792 3.792 0 01-3.784-3.6l-.005-.195V12.333a3.793 3.793 0 013.594-3.79l.195-.005h36.947zM12.896 8.516v20.347c3.227-3.529 4.817-6.982 4.817-10.363 0-3.378-1.589-6.703-4.817-9.984zm296.52.515c-2.974 3.383-4.44 6.696-4.44 9.943 0 3.245 1.464 6.44 4.44 9.595V9.031zm-202.733 1.405H69.736c-.996 0-1.813.77-1.889 1.749l-.006.148v13.282c0 .998.77 1.816 1.747 1.892l.148.006h36.947c.997 0 1.813-.77 1.889-1.75l.006-.148V12.333a1.896 1.896 0 00-1.895-1.897zm56.841 0h-36.947c-.996 0-1.813.77-1.889 1.749l-.005.148v13.282c0 .998.77 1.816 1.746 1.892l.148.006h36.947c.997 0 1.814-.77 1.89-1.75l.005-.148V12.333a1.896 1.896 0 00-1.895-1.897zm166.828.323h-19.041v16.618h19.041c1 0 1.818-.774 1.89-1.756l.005-.141V12.656c0-1-.773-1.82-1.753-1.892l-.142-.005zm-85.355 10.113a2.844 2.844 0 012.842 2.846 2.845 2.845 0 01-2.669 2.84l-.173.006H211.84a2.844 2.844 0 01-2.843-2.846 2.845 2.845 0 012.67-2.841l.173-.005h33.157zm0 1.897H211.84a.948.948 0 00-.11 1.891l.11.007h33.157a.948.948 0 000-1.898zm89.144-8.662v10.271h63.602l4.823.07c10.813.139 18.53.12 23.144-.058l.279-.011c5.052-.207 8.28-.871 9.533-1.845 1.724-1.523 2.023-3.055.988-4.882-1.021-1.803-4.041-2.85-9.124-2.968l-13.926-.27-79.319-.307zM104 14a1 1 0 011 1v4a1 1 0 01-1 1H71a1 1 0 01-1-1v-4a1 1 0 011-1h33zm58 0a1 1 0 011 1v4a1 1 0 01-1 1h-33a1 1 0 01-1-1v-4a1 1 0 011-1h33zm97.681-7.359a5.214 5.214 0 015.21 5.218 5.215 5.215 0 01-4.99 5.213l-.22.005h-69.157a5.214 5.214 0 01-5.21-5.218 5.215 5.215 0 014.99-5.213l.22-.005h69.157zm0 1.897h-69.157a3.318 3.318 0 00-3.316 3.321 3.319 3.319 0 003.128 3.315l.188.005h69.157a3.318 3.318 0 003.316-3.32 3.318 3.318 0 00-3.316-3.32z" fill="#FFF"/></svg>