<svg width="57" height="114" xmlns="http://www.w3.org/2000/svg"><path d="M49.02 0A7.98 7.98 0 0157 7.98v98.04a7.98 7.98 0 01-7.98 7.98H7.98A7.98 7.98 0 010 106.02V7.98A7.98 7.98 0 017.98 0h41.04zM28.5 2.28h-.001l.001 1.98H8.351c-3.346 0-5.328.842-5.946 2.527A5.744 5.744 0 002.28 7.98v98.04c0 .29.022.574.063.853.54 1.806 2.543 2.71 6.008 2.71H48.65c3.465 0 5.468-.904 6.007-2.71.042-.279.064-.563.064-.853V7.98c0-.41-.043-.809-.125-1.194-.618-1.684-2.6-2.526-5.946-2.526H28.5V2.28zm1.71 98.04c.944 0 1.71.766 1.71 1.71v3.42a1.71 1.71 0 01-1.71 1.71h-3.42a1.71 1.71 0 01-1.71-1.71v-3.42c0-.944.766-1.71 1.71-1.71h3.42zm-13.68 0a.57.57 0 01.57.57v5.7a.57.57 0 11-1.14 0v-5.7a.57.57 0 01.57-.57zm-2.28 0a.57.57 0 01.57.57v5.7a.57.57 0 11-1.14 0v-5.7a.57.57 0 01.57-.57zm-2.28 0a.57.57 0 01.57.57v5.7a.57.57 0 11-1.14 0v-5.7a.57.57 0 01.57-.57zm33.954.162c.225.22.23.58.01.806l-2.388 2.452 2.388 2.452a.57.57 0 11-.816.796l-2.776-2.85a.57.57 0 010-.796l2.776-2.85a.57.57 0 01.806-.01zm-15.714.978h-3.42a.57.57 0 00-.57.57v3.42c0 .315.255.57.57.57h3.42a.57.57 0 00.57-.57v-3.42a.57.57 0 00-.57-.57zM49.02 7.98a2.28 2.28 0 110 4.56 2.28 2.28 0 010-4.56z" fill="#FFF"/></svg>