<svg width="19" height="24" xmlns="http://www.w3.org/2000/svg"><g fill="#FFF"><path d="M12.964.565c-1.036.092-2.246.943-2.952 2.05-.644 1.005-1.173 2.498-.967 3.949 1.132.045 2.302-.826 2.98-1.953.633-1.048 1.113-2.531.94-4.046z"/><path d="M18.356 8.817c-1.138-1.425-2.738-2.252-4.25-2.252-1.995 0-2.839.953-4.225.953-1.429 0-2.515-.95-4.24-.95-1.695 0-3.5 1.033-4.643 2.8-1.609 2.49-1.334 7.168 1.273 11.154.933 1.426 2.179 3.03 3.808 3.043 1.45.014 1.859-.928 3.823-.938 1.965-.01 2.337.95 3.784.935 1.631-.012 2.945-1.79 3.878-3.215.669-1.023.917-1.537 1.436-2.691-3.772-1.433-4.377-6.785-.644-8.84z"/></g></svg>