<svg width="162" height="20" xmlns="http://www.w3.org/2000/svg"><path d="M7.506 19.264a8.58 8.58 0 001.839-.185 9.04 9.04 0 001.49-.451c.433-.178.795-.36 1.087-.547.292-.187.483-.326.574-.417a1.2 1.2 0 00.191-.232.954.954 0 00.09-.22c.022-.081.038-.177.047-.286a5.655 5.655 0 00-.006-.903 1.433 1.433 0 00-.062-.32c-.027-.078-.064-.13-.11-.158a.313.313 0 00-.164-.041c-.136 0-.323.086-.56.26a10.2 10.2 0 01-.91.58 7.15 7.15 0 01-1.34.582c-.523.173-1.136.26-1.838.26-.83 0-1.572-.149-2.229-.445a4.348 4.348 0 01-1.66-1.312c-.452-.58-.798-1.3-1.04-2.16-.241-.862-.362-1.853-.362-2.974 0-1.13.125-2.135.376-3.015.25-.88.604-1.624 1.06-2.235a4.522 4.522 0 011.647-1.388c.643-.314 1.356-.471 2.14-.471.72 0 1.337.088 1.852.266.515.178.953.374 1.313.588.36.214.654.41.882.588.227.178.405.267.533.267a.28.28 0 00.184-.062.486.486 0 00.13-.191c.037-.087.064-.194.082-.322.018-.127.028-.282.028-.465 0-.164-.007-.305-.021-.423a2.227 2.227 0 00-.055-.308.932.932 0 00-.089-.226 1.588 1.588 0 00-.239-.28c-.123-.123-.344-.28-.663-.472a6.085 6.085 0 00-1.094-.505 9.527 9.527 0 00-1.34-.363 7.65 7.65 0 00-1.49-.143c-1.157 0-2.212.21-3.165.629A6.807 6.807 0 002.16 3.589C1.477 4.386.946 5.359.567 6.508.19 7.656 0 8.964 0 10.432c0 1.43.175 2.695.526 3.794.351 1.098.853 2.02 1.504 2.768a6.28 6.28 0 002.366 1.695c.925.383 1.961.575 3.11.575zm20.672-.137c.282 0 .508-.01.676-.027.17-.019.29-.06.363-.123.073-.064.107-.158.102-.28a1.691 1.691 0 00-.116-.486L23.27 1.777a.732.732 0 00-.15-.253.61.61 0 00-.274-.157 2.146 2.146 0 00-.465-.075c-.192-.014-.433-.02-.725-.02-.273 0-.499.006-.677.02a1.961 1.961 0 00-.437.075.594.594 0 00-.26.15.716.716 0 00-.143.247l-5.934 16.433c-.073.2-.112.363-.116.486-.005.123.027.216.096.28.068.064.186.107.355.13.169.023.385.034.65.034.255 0 .462-.01.622-.027.159-.019.282-.048.369-.09a.53.53 0 00.198-.15.715.715 0 00.11-.212l1.448-4.252h7.356l1.518 4.307c.036.082.075.15.116.205a.407.407 0 00.191.13c.087.032.214.055.383.068.169.014.394.021.677.021zm-3.5-6.604h-6.153l3.05-8.818h.013l3.09 8.818zm10.965 6.782c.847 0 1.638-.114 2.372-.342a5.51 5.51 0 001.914-1.019c.542-.45.966-1 1.271-1.647.306-.647.458-1.386.458-2.215 0-.702-.116-1.31-.348-1.825a4.481 4.481 0 00-.916-1.34 6.164 6.164 0 00-1.292-.984 18.887 18.887 0 00-1.477-.766c-.501-.232-.993-.463-1.477-.69a8.095 8.095 0 01-1.292-.752 3.492 3.492 0 01-.909-.944c-.228-.355-.342-.779-.342-1.271 0-.337.06-.656.178-.957.119-.301.296-.56.533-.78.237-.218.538-.394.903-.526.364-.132.793-.198 1.285-.198a4.79 4.79 0 011.429.198c.423.132.79.278 1.1.438.31.16.572.303.786.43.215.128.372.192.472.192.064 0 .12-.02.17-.062a.393.393 0 00.117-.191c.027-.087.048-.194.062-.322a5.302 5.302 0 00.007-.861 1.951 1.951 0 00-.042-.28.772.772 0 00-.068-.192 1.039 1.039 0 00-.17-.205c-.087-.086-.267-.2-.54-.341a6.244 6.244 0 00-.937-.383 8.066 8.066 0 00-1.121-.274 6.95 6.95 0 00-1.183-.102c-.766 0-1.479.102-2.14.307-.66.205-1.23.504-1.709.896a4.071 4.071 0 00-1.12 1.456c-.27.579-.404 1.237-.404 1.976 0 .72.116 1.337.349 1.852.232.515.535.964.909 1.347.373.383.797.715 1.271.998.474.282.962.54 1.463.772.501.233.991.46 1.47.684.478.223.904.47 1.278.738.374.269.675.581.902.937.228.355.342.783.342 1.285a3 3 0 01-.246 1.244 2.51 2.51 0 01-.704.923 3.3 3.3 0 01-1.094.58 4.546 4.546 0 01-1.401.206c-.675 0-1.27-.08-1.784-.24a8.492 8.492 0 01-2.215-1.019c-.232-.154-.413-.231-.54-.231a.373.373 0 00-.192.048.356.356 0 00-.136.17c-.037.082-.064.19-.082.322a3.76 3.76 0 00-.028.499c0 .282.025.508.076.677.05.168.127.307.232.416.105.11.292.242.56.397.27.155.602.305.999.451a9.01 9.01 0 001.353.37c.506.1 1.055.15 1.648.15zm21.601-.178a7 7 0 00.677-.027c.169-.019.29-.06.362-.123.073-.064.107-.158.103-.28a1.691 1.691 0 00-.116-.486L52.336 1.777a.732.732 0 00-.15-.253.61.61 0 00-.274-.157 2.146 2.146 0 00-.465-.075c-.191-.014-.433-.02-.724-.02-.274 0-.5.006-.677.02a1.961 1.961 0 00-.438.075.594.594 0 00-.26.15.716.716 0 00-.143.247l-5.934 16.433c-.072.2-.111.363-.116.486-.004.123.028.216.096.28.068.064.187.107.355.13.17.023.386.034.65.034.255 0 .462-.01.622-.027.16-.019.282-.048.37-.09a.53.53 0 00.197-.15.715.715 0 00.11-.212l1.449-4.252h7.355l1.518 4.307c.036.082.075.15.116.205a.407.407 0 00.192.13c.086.032.214.055.382.068.169.014.395.021.677.021zm-3.5-6.604h-6.152l3.049-8.818h.013l3.09 8.818zm25.389 6.604c.219 0 .403-.011.554-.034.15-.023.27-.05.362-.082a.365.365 0 00.191-.13.337.337 0 00.055-.192V1.71a.337.337 0 00-.055-.191.365.365 0 00-.191-.13 2.071 2.071 0 00-.362-.082 3.78 3.78 0 00-.554-.035c-.237 0-.429.012-.574.035-.146.022-.265.05-.356.082a.365.365 0 00-.191.13.337.337 0 00-.055.191v7.082h-8.053V1.709a.337.337 0 00-.054-.191.365.365 0 00-.192-.13 2.071 2.071 0 00-.362-.082 3.896 3.896 0 00-.567-.035c-.22 0-.406.012-.561.035a2.07 2.07 0 00-.37.082.365.365 0 00-.19.13.337.337 0 00-.055.191v16.98c0 .073.018.137.054.192.037.055.1.098.192.13.091.032.214.059.369.082.155.023.342.034.56.034.228 0 .418-.011.568-.034.15-.023.271-.05.362-.082a.365.365 0 00.192-.13.337.337 0 00.054-.192v-7.847h8.053v7.847c0 .073.018.137.055.192.036.055.1.098.191.13s.21.059.356.082c.145.023.337.034.574.034zm9.94.178c.701 0 1.394-.178 2.077-.534.684-.355 1.377-.92 2.079-1.695v1.627c0 .073.013.135.04.185a.33.33 0 00.158.13c.077.036.182.063.314.082.132.018.303.027.513.027.191 0 .353-.01.485-.027a1.27 1.27 0 00.322-.082.376.376 0 00.17-.13.337.337 0 00.048-.185V6.398a.282.282 0 00-.061-.184.556.556 0 00-.185-.137.987.987 0 00-.342-.082 6.032 6.032 0 00-.546-.02c-.228 0-.413.006-.554.02a1.12 1.12 0 00-.349.082.413.413 0 00-.184.137.337.337 0 00-.048.184v8.6c-.63.775-1.224 1.363-1.784 1.764-.561.4-1.124.601-1.689.601-.437 0-.82-.084-1.148-.253a2.22 2.22 0 01-.814-.71 3.234 3.234 0 01-.478-1.108c-.105-.433-.158-1.01-.158-1.73V6.399a.305.305 0 00-.054-.184.474.474 0 00-.185-.137 1.06 1.06 0 00-.348-.082 6.032 6.032 0 00-.547-.02c-.22 0-.401.006-.547.02a1.136 1.136 0 00-.356.082.413.413 0 00-.184.137.337.337 0 00-.048.184v7.465c0 .894.075 1.652.226 2.277.15.624.398 1.17.745 1.64.346.47.8.841 1.36 1.115.56.273 1.251.41 2.071.41zm16.406 0c.847 0 1.6-.16 2.255-.479a4.53 4.53 0 001.662-1.38c.45-.602.792-1.33 1.025-2.181.232-.853.349-1.812.349-2.878 0-.894-.092-1.741-.274-2.543-.182-.802-.472-1.502-.868-2.099a4.427 4.427 0 00-1.545-1.429c-.633-.355-1.397-.533-2.29-.533a4.467 4.467 0 00-2.023.458c-.329.16-.664.367-1.005.622-.342.255-.695.57-1.06.944V.437a.337.337 0 00-.055-.19.402.402 0 00-.177-.138 1.25 1.25 0 00-.342-.082 4.677 4.677 0 00-.56-.027c-.22 0-.402.01-.548.027a1.354 1.354 0 00-.348.082.356.356 0 00-.178.137.373.373 0 00-.048.192v18.265a.43.43 0 00.041.192.294.294 0 00.164.13c.082.031.187.056.315.075.127.018.282.027.465.027.191 0 .348-.01.471-.027.123-.019.226-.044.308-.076a.363.363 0 00.178-.13.337.337 0 00.054-.19v-1.505c.356.374.693.693 1.012.957.319.265.638.483.957.657.32.173.645.298.978.375a4.79 4.79 0 001.087.117zm-.233-1.942c-.61 0-1.198-.198-1.764-.594-.565-.397-1.157-.973-1.777-1.73v-4.908c.356-.456.69-.834 1.005-1.135a6.4 6.4 0 01.91-.738 3.21 3.21 0 01.86-.41 3.08 3.08 0 01.862-.123c.583 0 1.07.139 1.463.417.392.278.706.644.943 1.1.237.456.403.98.5 1.572.095.593.143 1.204.143 1.832 0 .575-.057 1.142-.171 1.703a5.262 5.262 0 01-.547 1.517 3.13 3.13 0 01-.978 1.087c-.4.274-.884.41-1.449.41zm27.727 1.764c.282 0 .508-.01.676-.027.169-.019.29-.06.363-.123.073-.064.107-.158.102-.28a1.691 1.691 0 00-.116-.486l-5.934-16.434a.732.732 0 00-.15-.253.61.61 0 00-.273-.157 2.146 2.146 0 00-.465-.075c-.192-.014-.433-.02-.725-.02-.273 0-.499.006-.677.02a1.961 1.961 0 00-.437.075.594.594 0 00-.26.15.716.716 0 00-.143.247L119 18.197c-.073.2-.112.363-.116.486-.005.123.027.216.095.28.069.064.187.107.356.13.169.023.385.034.65.034.255 0 .462-.01.621-.027.16-.019.283-.048.37-.09a.53.53 0 00.198-.15.715.715 0 00.11-.212l1.448-4.252h7.356l1.517 4.307a1.1 1.1 0 00.117.205.407.407 0 00.191.13c.087.032.214.055.383.068.169.014.394.021.677.021zm-3.5-6.604h-6.153l3.05-8.818h.013l3.09 8.818zm12.045 6.782c1.175 0 2.164-.221 2.966-.663a5.22 5.22 0 001.949-1.873c.496-.807.852-1.771 1.066-2.892.214-1.121.321-2.36.321-3.719 0-1.458-.098-2.75-.294-3.876-.196-1.125-.526-2.073-.99-2.844a4.611 4.611 0 00-1.84-1.75c-.76-.396-1.702-.594-2.823-.594-1.167 0-2.151.22-2.953.663a5.169 5.169 0 00-1.941 1.873c-.493.807-.848 1.773-1.067 2.898-.219 1.126-.328 2.363-.328 3.712 0 1.459.098 2.75.294 3.876.196 1.126.526 2.074.991 2.844a4.611 4.611 0 001.839 1.75c.761.396 1.698.595 2.81.595zm.136-1.928c-.656 0-1.214-.132-1.675-.397-.46-.264-.838-.688-1.134-1.271-.296-.583-.513-1.338-.65-2.263-.136-.925-.205-2.048-.205-3.37 0-.984.05-1.905.15-2.762.1-.856.29-1.604.568-2.242.278-.638.659-1.14 1.142-1.504.483-.364 1.112-.547 1.886-.547.438 0 .832.057 1.183.171.35.114.663.297.936.547.274.25.509.57.705.957.196.388.355.85.478 1.388.123.538.217 1.158.28 1.86.064.701.096 1.494.096 2.378 0 .657-.02 1.288-.061 1.894a12.21 12.21 0 01-.226 1.688 7.63 7.63 0 01-.438 1.422 3.866 3.866 0 01-.69 1.1 2.82 2.82 0 01-.998.705c-.387.164-.836.246-1.347.246zm13.084 1.928c.985 0 1.88-.132 2.687-.397a5.984 5.984 0 002.085-1.155 5.12 5.12 0 001.353-1.866c.32-.739.479-1.582.479-2.53 0-.765-.13-1.462-.39-2.091a4.266 4.266 0 00-1.148-1.607c-.506-.442-1.137-.784-1.894-1.025-.756-.242-1.64-.363-2.652-.363-.438 0-.823.005-1.155.014-.333.01-.659.037-.978.082V3.404h6.604c.164 0 .291-.09.382-.273.091-.182.137-.438.137-.766a2.6 2.6 0 00-.034-.45 1.019 1.019 0 00-.103-.315.48.48 0 00-.17-.185.407.407 0 00-.212-.061h-7.834c-.265 0-.468.072-.609.218-.141.146-.212.37-.212.67v7.205c0 .338.055.565.164.684.11.118.292.178.547.178.347 0 .72-.028 1.121-.082.401-.055.88-.082 1.436-.082.784 0 1.458.07 2.023.211.565.142 1.032.356 1.402.643.369.287.642.647.82 1.08.178.433.267.932.267 1.497 0 .675-.105 1.247-.315 1.716a3.21 3.21 0 01-.868 1.169c-.37.31-.809.538-1.32.684a6.106 6.106 0 01-1.681.218c-.656 0-1.224-.059-1.702-.177a8.882 8.882 0 01-1.203-.376 5.96 5.96 0 01-.773-.37c-.191-.114-.332-.17-.424-.17a.283.283 0 00-.17.054.434.434 0 00-.13.171.964.964 0 00-.076.3 5.631 5.631 0 00-.007.84c.01.12.026.218.048.296.023.077.048.143.076.198a.662.662 0 00.143.178c.069.063.226.15.472.26.246.109.56.22.943.334.383.114.82.21 1.313.287a9.945 9.945 0 001.558.117z" fill="#FFF"/></svg>