<svg width="64" height="27" xmlns="http://www.w3.org/2000/svg"><path d="M60.5 0A3.5 3.5 0 0164 3.5v9.978a3.5 3.5 0 01-1.997 3.16l-4.662 2.217a.5.5 0 00-.261.298l-1.763 5.428A3.5 3.5 0 0151.988 27H12.012c-1.416 0-2.69-.853-3.254-2.211l-.075-.208-1.763-5.428a.513.513 0 00-.16-.243l-.1-.055-4.663-2.216C.87 16.102.114 15.006.008 13.703L0 13.478V3.5C0 1.664 1.418.144 3.296.006L3.5 0zM3.555 2.999l-.094.002A.5.5 0 003 3.5l-.001 9.916.003.103a.5.5 0 00.283.41l4.724 2.248.22.119a3.5 3.5 0 011.545 1.93l1.742 5.372.034.095a.5.5 0 00.462.307h39.976a.5.5 0 00.476-.346l1.762-5.428a3.5 3.5 0 011.826-2.08l4.663-2.217a.5.5 0 00.285-.451V3.5a.5.5 0 00-.5-.5L3.555 2.999zM52.5 9.5a2 2 0 110 4h-40a2 2 0 110-4h40z" fill="#FFF"/></svg>