<svg width="101" height="140" xmlns="http://www.w3.org/2000/svg"><path d="M91.27 0c5.097 0 9.23 4.477 9.23 10v120c0 5.523-4.133 10-9.23 10H9.73C4.634 140 .5 135.523.5 130V10C.5 4.477 4.633 0 9.73 0h81.54zm1.43 3.734H8.452C5.903 3.734 3.837 7.24 3.837 10v120c0 2.761 2.066 6.228 4.615 6.228h84.249c2.549 0 4.615-3.467 4.615-6.228V10c0-2.761-2.066-6.266-4.615-6.266zM62.819 130.77c.419 0 .758.345.758.77 0 .424-.34.769-.758.769h-23.1a.764.764 0 01-.757-.77c0-.424.339-.769.757-.769h23.1zM50.5 1.54a.77.77 0 100 1.538.77.77 0 000-1.539z" fill="#FFF"/></svg>