<svg width="248" height="145" xmlns="http://www.w3.org/2000/svg"><path d="M21 131V3.75A3.75 3.75 0 0124.75 0h197a3.75 3.75 0 013.75 3.75V131h18.25a3.75 3.75 0 013.75 3.75v3a6.75 6.75 0 01-6.75 6.75h-234A6.75 6.75 0 010 137.75v-3A3.75 3.75 0 013.75 131H21zm1.5 0H224V3.75a2.25 2.25 0 00-2.25-2.25h-197a2.25 2.25 0 00-2.25 2.25V131zm-1.5 1.5H3.75a2.25 2.25 0 00-2.25 2.25v3c0 2.9 2.35 5.25 5.25 5.25h234c2.9 0 5.25-2.35 5.25-5.25v-3a2.25 2.25 0 00-2.25-2.25H21zm81.75 2.5h42a2 2 0 010 4h-42a2 2 0 010-4zm0 1a1 1 0 100 2h42a1 1 0 100-2h-42zm-69-126.25h179a4 4 0 014 4v106a4 4 0 01-4 4h-179a4 4 0 01-4-4v-106a4 4 0 014-4zm0 1.5a2.5 2.5 0 00-2.5 2.5v106a2.5 2.5 0 002.5 2.5h179a2.5 2.5 0 002.5-2.5v-106a2.5 2.5 0 00-2.5-2.5h-179zm90-4a1.5 1.5 0 110-3 1.5 1.5 0 010 3zm0-1a.5.5 0 100-1 .5.5 0 000 1zm4.5 0a.5.5 0 010-1h9.684a.5.5 0 010 1h-9.684z" fill="#FFF"/></svg>