<svg width="229" height="134" xmlns="http://www.w3.org/2000/svg"><path d="M197.162 0c5.397 0 9.79 4.301 9.937 9.663l.004.278-.001 110.179h20.711a.83.83 0 01.823.725l.006.104v5.799c0 3.583-2.843 6.5-6.395 6.623l-.233.004H6.626a6.626 6.626 0 01-6.622-6.395L0 126.748v-5.8c0-.421.315-.77.724-.82l.104-.007 20.709-.001V9.941c0-5.397 4.302-9.79 9.663-9.937L31.48 0h165.683zm-97.34 121.777H1.656v4.97a4.976 4.976 0 004.755 4.967l.215.005h215.388a4.977 4.977 0 004.966-4.756l.005-.215v-4.97l-98.168-.001v1.657a3.313 3.313 0 01-3.124 3.308l-.188.006h-22.368a3.314 3.314 0 01-3.309-3.126l-.005-.188-.001-1.657zm28.167 0h-27.338v1.657a2.488 2.488 0 002.323 2.48l.163.006h22.368a2.489 2.489 0 002.48-2.323l.005-.163-.001-1.657zm69.173-120.12H31.479c-4.484 0-8.146 3.58-8.28 8.031l-.005.253V120.12h182.252V9.941c0-4.568-3.716-8.284-8.284-8.284zm-4.142 5.8c3.582 0 6.5 2.841 6.623 6.393l.004.233v95.268c0 3.582-2.842 6.5-6.394 6.623l-.233.004H35.621a6.626 6.626 0 01-6.623-6.394l-.004-.233V14.083c0-3.582 2.841-6.5 6.394-6.623l.233-.004H193.02zm0 .827H35.621a5.806 5.806 0 00-5.795 5.577l-.004.222v95.268a5.806 5.806 0 005.577 5.795l.222.004H193.02a5.806 5.806 0 005.795-5.577l.004-.222V14.083a5.806 5.806 0 00-5.799-5.799zm-78.7-4.97a.828.828 0 11.001 1.656.828.828 0 010-1.656z" fill="#FFF"/></svg>