<svg width="31" height="38" xmlns="http://www.w3.org/2000/svg"><path d="M22.469 0a3.5 3.5 0 013.5 3.5v11.559l2.785 2.154a3.5 3.5 0 011.352 2.553l.007.216V34.5a3.5 3.5 0 01-3.5 3.5H3.5A3.5 3.5 0 010 34.5v-31A3.5 3.5 0 013.5 0zm0 3H3.5a.5.5 0 00-.5.5v31a.5.5 0 00.5.5h23.113a.5.5 0 00.5-.5V19.982a.5.5 0 00-.194-.396l-3.368-2.605a1.5 1.5 0 01-.582-1.186V3.5a.5.5 0 00-.5-.5zM6.386 5a1.5 1.5 0 011.493 1.356l.007.144v6.153a1.5 1.5 0 01-2.994.144l-.006-.144V6.5a1.5 1.5 0 011.5-1.5zm4.5 0a1.5 1.5 0 011.493 1.356l.007.144v6.153a1.5 1.5 0 01-2.994.144l-.006-.144V6.5a1.5 1.5 0 011.5-1.5zm9 0a1.5 1.5 0 011.493 1.356l.007.144v6.153a1.5 1.5 0 01-2.994.144l-.006-.144V6.5a1.5 1.5 0 011.5-1.5zm-4.5 0a1.5 1.5 0 011.493 1.356l.007.144v6.153a1.5 1.5 0 01-2.994.144l-.006-.144V6.5a1.5 1.5 0 011.5-1.5z" fill="#FFF"/></svg>