<svg width="47" height="62" xmlns="http://www.w3.org/2000/svg"><path d="M44 0a3 3 0 012.995 2.824L47 3v57a2 2 0 01-1.85 1.995L45 62H2a2 2 0 01-1.995-1.85L0 60V42.179a2 2 0 011.85-1.995L2 40.18h2.848V24.228H2a2 2 0 01-1.995-1.851L0 22.227V10.38a2 2 0 01.434-1.244l.11-.128L8.447.627A2 2 0 019.72.009L9.9 0H44zM10.5 3h-.167L3 10.776v10.451h1.848a3 3 0 012.995 2.824l.005.177v15.95a3 3 0 01-2.824 2.996l-.176.005L3 43.178V59h41V18.814H12a1.5 1.5 0 01-1.493-1.355l-.007-.145V3zm27.844 47.5a1.5 1.5 0 01.145 2.993l-.145.007H10.846a1.5 1.5 0 01-.144-2.993l.144-.007h27.498zM44 3h-4v12.814h4V3zm-7 0h-3.25v12.813H37V3zm-6.25 0H27v12.813h3.75V3zM17.5 3h-4v12.814l4-.001V3zM24 3h-3.5v12.813H24V3z" fill="#FFF"/></svg>