<svg width="21" height="24" xmlns="http://www.w3.org/2000/svg"><path d="M7.198 12.806H.79A.79.79 0 000 13.6v5.152c0 .382.271.69.63.764l6.215 1.222.406.07A.792.792 0 008 20.024v-6.426a.797.797 0 00-.802-.793zm12.972 0H9.824a.826.826 0 00-.824.831v7.319c0 .334.203.613.486.74l.012.012.326.067h.019l10.13 1.995c.012.006.03.018.043.018.006 0 .012 0 .018-.006a.246.246 0 00.13.024.83.83 0 00.836-.818v-9.351a.824.824 0 00-.83-.83zm-.006-12c-.043 0-.086 0-.13.025-.005-.007-.011-.007-.018-.007a.067.067 0 00-.043.019l-10.13 1.99h-.02l-.313.066s-.012 0-.024.013A.83.83 0 009 3.664v7.311c0 .461.369.831.824.831h10.34c.455 0 .836-.37.836-.831v-9.35a.834.834 0 00-.836-.819zm-12.918 3l-.407.07L.63 5.102a.78.78 0 00-.63.764v5.148c0 .44.353.792.79.792h6.409A.8.8 0 008 11.014V4.587a.8.8 0 00-.754-.78z" fill="#FFF"/></svg>