<?xml version="1.0" encoding="UTF-8"?>
<svg width="438px" height="39px" viewBox="0 0 438 39" version="1.1" xmlns="http://www.w3.org/2000/svg" xmlns:xlink="http://www.w3.org/1999/xlink">
    <!-- Generator: Sketch 61.2 (89653) - https://sketch.com -->
    <title>icon/a05-frame-03</title>
    <desc>Created with Sketch.</desc>
    <g id="icon/a05-frame-03" stroke="none" stroke-width="1" fill="none" fill-rule="evenodd">
        <g id="Group-5" transform="translate(6.000000, 0.000000)" fill="#FFFFFF" fill-rule="nonzero">
            <path d="M291.28122,0 C292.235043,0 293.095599,0.548249539 293.494303,1.39355101 L293.563558,1.55546478 L294.556854,4.13412752 C294.65927,4.4000057 294.744235,4.67156408 294.811436,4.94710879 L295,4.947106 L295,6 L296,6 L296,10 L314.300551,10.0001749 C315.955568,10.0336507 317.115319,10.7358653 317.655833,12.0060595 L317.656864,12.0064782 L317.770275,12 L358.609322,12 L360.848918,12.0256807 C379.012009,12.2452781 394.064904,12.7182059 406.009729,13.4447739 L407.456826,13.5350091 C420.443731,14.3651079 427.073042,17.0050758 426.989596,21.9267496 L426.984508,22.0591819 L426.994799,22.246766 C427.173539,27.2547935 422.742526,30.2564088 414.141873,31.3534005 L413.29655,31.4536186 C407.880902,32.0484888 368.822843,32.4712367 296.004782,32.7236616 L296,38 L113.306644,38.0007475 C112.768305,38.6119447 111.963937,39 111.065217,39 L111.065217,39 L94.8330987,38.9955944 C92.8386666,38.8094234 91.3638974,38.6016672 90.3896703,38.3659031 L90.3896703,38.3659031 L90.2731075,38.3403474 C89.5397139,38.1947181 88.1938613,38.1881019 86.2271834,38.3384289 L86.2271834,38.3384289 L85.5486192,38.3943752 L26.9347826,38.3943752 C26.3883961,38.3943752 25.8768836,38.2509437 25.4388231,38.0011386 L6.89714609,38 C4.52298307,38 3.05239449,37.1609375 3.00044688,35.4093232 L3,32 L1.90909091,32 C0.90265465,32 0.0781151109,31.1841222 0.00523638478,30.1492623 L0,30 L0,23 C0,21.8954305 0.854729114,21 1.90909091,21 L1.90909091,21 L3.009,21 L3.01,12.576 L3,12.5672715 L3.01,12.555 L3.01015866,10.3056429 C2.98186538,9.3887286 3.01267879,8.47203482 3.10252177,7.55578434 C2.99905212,7.32758503 2.96917719,7.0582542 3.03486798,6.79295169 C3.07703783,6.62264219 3.1538509,6.47313082 3.25458186,6.35118182 C3.36500022,5.63721344 3.51161347,4.92184152 3.69422005,4.20690621 C4.27578684,1.92997493 5.83704085,0.623839085 8.24393481,0.418974687 L8.49593489,0.401715604 L283.548457,0.402574157 L283.817023,0.333838128 C284.63494,0.142651673 285.504374,0.0339445979 286.424706,0.0067871979 L286.88911,0 L291.28122,0 Z M111.065217,16.8794449 L95.8489751,16.8803662 C93.2200799,16.8962646 91.6027754,17.1160589 91.2403765,17.3950126 L91.2403765,17.3950126 L91.1206072,17.4739323 C89.5631818,18.3443586 87.6274108,18.5335046 85.3492963,18.0780656 L85.3492963,18.0780656 L85.0618525,18.0232925 C83.1086642,17.6687183 80.4174528,17.5258551 76.9821608,17.6014037 L77,17.601 L77,36.518 L85.4576,36.5190067 C87.8982099,36.2999234 89.6219219,36.2883927 90.6948309,36.5051576 L90.8676344,36.5434025 L91.0463927,36.5847912 C91.7895742,36.7496938 92.8689168,36.9066148 94.2261876,37.0500102 L94.2261876,37.0500102 L94.9277141,37.1205551 L111.065217,37.1205551 C111.605496,37.1205551 112.043478,36.699827 112.043478,36.1808326 L112.043478,36.1808326 L112.042198,32.3187107 C112.014761,32.2297234 112,32.1352582 112,32.0373721 C112,31.939486 112.014742,31.845007 112.042147,31.7559964 L112.041869,21.2920417 C112.014649,21.2000594 112,21.1024306 112,21.0012498 C112,20.899132 112.014693,20.8005316 112.042031,20.707616 L112.043478,17.8191674 C112.043478,17.300173 111.605496,16.8794449 111.065217,16.8794449 L111.065217,16.8794449 Z M75,17.601 L26.9347826,17.6014037 C26.394504,17.6014037 25.9565217,18.0221318 25.9565217,18.5411262 L25.9565217,18.5411262 L25.9565217,35.5752079 C25.9565217,36.0942023 26.394504,36.5149303 26.9347826,36.5149303 L26.9347826,36.5149303 L75,36.518 L75,17.601 Z M114.004805,32.9996984 L114,36.016 L294.052992,36.0157936 L294.059345,32.7303377 C247.581606,32.8882268 187.573371,32.9778615 114.004805,32.9996984 Z M19.1402352,32.0016822 L4.916,32 L4.91642265,35.2558168 C4.90600628,35.6957289 5.33442107,35.9738766 6.69620298,35.9982538 L6.89714609,36 L22.382,36 L22.3325453,35.9280536 C20.5608002,35.5660173 19.4984011,34.1956514 19.1402352,32.0016822 Z M23.9642518,19.7633289 L23.9606699,19.8848783 L23.9591154,34.7725104 C23.9630016,34.8381775 23.9743911,34.8933334 24.000007,34.9391658 L23.9995404,19.5249047 C23.9811027,19.5974515 23.9696104,19.676704 23.9642518,19.7633289 Z M22.0825965,19.1355181 L22.003544,19.168388 C21.4301305,19.4285333 21.1016011,20.0055133 20.9943133,20.9996383 L21,21 L21.0006414,31.1849829 C21.1119899,32.4263025 21.4459931,33.216705 22.0003476,33.6394134 L22,19.8848783 C22,19.6194073 22.0279429,19.3692834 22.0825965,19.1355181 Z M418.988696,17.1507537 L418.985777,17.172364 C418.930979,17.4987365 418.720568,17.7901466 418.402192,17.9271156 L418.049922,18.0714112 C413.546479,19.829894 403.166416,20.8057924 386.754261,21.0488162 L384.728436,21.0747629 L114,21.996 L114,31.073 L162.362555,31.0481851 C321.379223,30.9229856 405.083867,30.4180941 413.082105,29.5395448 C421.341194,28.632343 425.170099,26.1898439 425.051025,22.3235712 L425.041571,22.1257545 L425.040801,22.0162474 C425.143682,19.9781327 423.151956,18.3222345 418.988696,17.1507537 Z M1.90909091,23 L1.90909091,30 L19.003,29.999 L19.003,22.999 L10,23 L1.90909091,23 Z M4.94957488,14.5552613 L4.948,21 L7.90408082,21.0002039 C7.55499983,18.6529793 6.57460021,16.5094223 4.94957488,14.5552613 Z M4.97541224,8.49032136 L4.96815582,8.5869291 C4.94776188,8.96102389 4.93801563,9.33588863 4.93891395,9.7117767 L4.94824447,10.276408 L4.94903826,11.638631 C7.77624152,14.3485331 9.42781886,17.4793539 9.87539497,21.0006616 L19.0362897,20.9998233 C19.2589889,18.5322054 20.5037688,17.0929809 22.6905381,17.0043508 L22.9079717,17 L22.9067656,17.7609386 C23.3025426,17.4198317 23.8206586,17.1752142 24.4467403,17.038887 C24.9716083,16.2470416 25.8893609,15.7219588 26.9347826,15.7219588 L26.9347826,15.7219588 L76.9597006,15.7222065 C80.6804223,15.6401251 83.6046869,15.8095688 85.747942,16.2380468 L85.747942,16.2380468 L86.0683692,16.2976296 C87.7559335,16.5872865 89.1020379,16.427689 90.1366976,15.8494302 L90.1366976,15.8494302 L90.0971408,15.8693749 L90.1147465,15.8578406 C90.9278804,15.3082669 92.5374464,15.0591675 95.1133272,15.0094875 L95.1133272,15.0094875 L95.807328,15.0009848 L111.065217,15 C112.686053,15 114,16.2621842 114,17.8191674 L114,17.8191674 L114,19.991 L288.018422,19.3989161 C288.219882,16.1416573 290.072123,13.3956319 293.496033,11.2150219 L293.841762,11 L294,11.222 L294.00092,9.23630063 C290.800193,11.0283915 286.406326,11.9381507 280.815735,11.9969514 L280.231615,12 C276.686646,12 251.022295,11.9144431 203.236274,11.7433213 L23.9163278,11.0862022 C18.4129986,11.0849371 14.3088772,10.7852806 11.5809374,10.1784181 C9.3427549,9.68050784 7.14090603,9.11781314 4.97541224,8.49032136 Z M290.125988,19.3925238 L294,19.379 L293.999645,13.2732364 C291.581598,15.000557 290.30966,17.0271146 290.125988,19.3925238 Z M314.283259,12.0520028 L296,12.052 L296,19.372 L316.126,19.303 L316.126696,13.8937717 C316.126696,12.6537153 315.667213,12.1258253 314.453472,12.0583708 L314.283259,12.0520028 Z M358.598715,13.9258154 L318,13.925 L318,19.297 L384.714988,19.0707298 L386.708727,19.045178 C401.761651,18.8221125 411.692958,17.9723129 416.381524,16.5359681 C414.020703,16.0711359 411.171546,15.7185756 407.82534,15.489501 L405.888851,15.3668668 C393.979864,14.6425146 378.957922,14.1705707 360.833533,13.9513905 L358.598715,13.9258154 Z M8.54758252,2.31737368 C6.89009067,2.40483736 5.9654882,3.14256645 5.57372958,4.676367 C5.43272683,5.22841634 5.31522148,5.78020819 5.22120327,6.33257186 L4.23097255,6.03859605 C6.75707902,6.80498081 9.33491985,7.48067809 11.9645315,8.06566638 C14.4507838,8.61876266 18.2577127,8.90953267 23.3673479,8.93004786 L274.422695,9.83184377 C277.493102,9.84061664 279.42942,9.84500313 280.231615,9.84500313 C286.168848,9.84500313 290.64327,8.88286889 293.650064,7.0007876 L291.040645,7 C289.788065,7 288.370827,6.69996695 286.776293,6.10668014 C285.627258,5.67025952 284.460071,5.25464828 283.274724,4.85985136 C282.021022,4.44228768 281.266418,3.55066021 281.058788,2.31887735 L8.54758252,2.31737368 Z M291.28122,1.9170198 L286.88911,1.9170198 C285.943348,1.9170198 285.06992,2.01127487 284.267842,2.19830869 L283.928459,2.28414206 L283.801806,2.3187354 L283.11382,2.31905404 C283.253609,2.59887849 283.50395,2.7800029 283.880174,2.90530978 C285.090748,3.30850874 286.283101,3.73308114 287.451076,4.17671946 C288.713387,4.64637547 289.818792,4.89879456 290.762416,4.94080748 L291.040645,4.947106 L292.791,4.947 L292.745297,4.81653093 L291.752001,2.23786819 C291.688219,2.07228343 291.54148,1.95483291 291.369214,1.9246549 L291.28122,1.9170198 Z" id="Combined-Shape"></path>
        </g>
    </g>
</svg>