<?xml version="1.0" encoding="UTF-8"?>
<svg width="450px" height="37px" viewBox="0 0 450 37" version="1.1" xmlns="http://www.w3.org/2000/svg" xmlns:xlink="http://www.w3.org/1999/xlink">
    <!-- Generator: Sketch 61.2 (89653) - https://sketch.com -->
    <title>icon/a05-frame-02</title>
    <desc>Created with Sketch.</desc>
    <g id="icon/a05-frame-02" stroke="none" stroke-width="1" fill="none" fill-rule="evenodd">
        <g id="Group-6" transform="translate(11.000000, 0.000000)" fill="#FFFFFF" fill-rule="nonzero">
            <path d="M295.575201,0 C298.118586,0 300.193783,2.00742855 300.307109,4.52645517 L300.311983,4.74358974 L300.311,6.895 L300.39341,6.98190689 L300.311,7.06 L300.311,8.861 L319.352496,8.86162793 C321.294253,8.86162793 322.894899,10.3241953 323.115885,12.2092876 L402.481708,12.5167022 L416.022203,12.779468 C421.948428,12.859422 425.681364,14.1087964 427.157962,16.7154958 C428.646637,19.3435158 428.155738,21.8535175 425.730223,23.9944147 C424.069121,25.2891722 420.705729,26.0087818 415.540902,26.2537052 L414.496636,26.2965971 C409.229729,26.4867994 400.210695,26.4832366 387.441042,26.2865841 L386.727758,26.2754603 L323.058575,26.2751575 C322.70631,27.9294885 321.277505,29.1846632 319.541626,29.2701085 L319.352496,29.2747528 L300.311,29.274 L300.311,30.392 L300.365019,30.4405679 L300.311,30.502 L300.311983,32.2564103 C300.311983,34.80345 298.307436,36.8816296 295.792024,36.9951187 L295.575201,37 L4.73678207,37 C2.1933977,37 0.118200503,34.9925715 0.00487425812,32.4735448 L0,32.2564103 L0,4.74358974 C0,2.19655003 2.00454763,0.11837038 4.51995912,0.00488126337 L4.73678207,0 L295.575201,0 Z M295.575201,1.8974359 L4.73678207,1.8974359 C3.22528507,1.8974359 1.98937515,3.07906023 1.89989965,4.57020999 L1.89471283,4.74358974 L1.894,5.894 L1.93518853,5.93033205 C6.35930022,9.92654323 8.60763466,14.1210867 8.60763466,18.5 C8.60763466,22.8731907 6.36444043,27.2196946 1.94439712,31.5356908 L1.894,31.583 L1.89471283,32.2564103 C1.89471283,33.7700796 3.07464138,35.0077657 4.56365114,35.0973698 L4.73678207,35.1025641 L295.575201,35.1025641 C297.086698,35.1025641 298.322608,33.9209398 298.412084,32.42979 L298.41727,32.2564103 L298.417645,31.2370327 C294.215184,27.3331534 292.080387,23.2412964 292.080387,18.9743801 C292.080387,14.7102849 294.213058,10.4715616 298.416897,6.26175233 L298.41727,4.74358974 C298.41727,3.17170238 297.144833,1.8974359 295.575201,1.8974359 Z M95.6829978,8.53846154 C97.7104385,8.53846154 99.366,10.1329538 99.4674927,12.1380497 L99.4724235,12.3333333 L99.4724235,25.6153846 C99.4724235,27.6457391 97.8802195,29.30368 95.8780012,29.4053185 L95.6829978,29.4102564 L58.7360977,29.4102564 C56.708657,29.4102564 55.0530955,27.8157641 54.9516028,25.8106682 L54.946672,25.6153846 L54.946672,12.3333333 C54.946672,10.3029788 56.538876,8.64503794 58.5410943,8.5433994 L58.7360977,8.53846154 L95.6829978,8.53846154 Z M152.524383,8.53846154 C154.551823,8.53846154 156.207385,10.1329538 156.308878,12.1380497 L156.313808,12.3333333 L156.313808,25.6153846 C156.313808,27.6457391 154.721604,29.30368 152.719386,29.4053185 L152.524383,29.4102564 L115.577483,29.4102564 C113.550042,29.4102564 111.89448,27.8157641 111.792988,25.8106682 L111.788057,25.6153846 L111.788057,12.3333333 C111.788057,10.3029788 113.380261,8.64503794 115.382479,8.5433994 L115.577483,8.53846154 L152.524383,8.53846154 Z M1.89608501,8.51570732 L1.89587504,28.8628818 C5.12278782,25.3344435 6.71292183,21.881045 6.71292183,18.5 C6.71292183,15.1216815 5.12449877,11.7968917 1.89608501,8.51570732 Z M298.416052,9.03081806 C295.441646,12.413655 293.9751,15.7273825 293.9751,18.9743801 C293.9751,22.219118 295.440392,25.4144766 298.416666,28.569248 L298.416052,9.03081806 Z M95.6829978,10.4358974 L58.7360977,10.4358974 C57.7395063,10.4358974 56.9226238,11.2064289 56.8470853,12.1850498 L56.8413849,12.3333333 L56.8413849,25.6153846 C56.8413849,26.6134083 57.6108106,27.4314648 58.588027,27.5071118 L58.7360977,27.5128205 L95.6829978,27.5128205 C96.6795893,27.5128205 97.4964717,26.742289 97.5720102,25.7636681 L97.5777107,25.6153846 L97.5777107,12.3333333 C97.5777107,11.2854084 96.7294188,10.4358974 95.6829978,10.4358974 Z M152.524383,10.4358974 L115.577483,10.4358974 C114.580891,10.4358974 113.764009,11.2064289 113.68847,12.1850498 L113.68277,12.3333333 L113.68277,25.6153846 C113.68277,26.6134083 114.452195,27.4314648 115.429412,27.5071118 L115.577483,27.5128205 L152.524383,27.5128205 C153.520974,27.5128205 154.337857,26.742289 154.413395,25.7636681 L154.419096,25.6153846 L154.419096,12.3333333 C154.419096,11.2854084 153.570804,10.4358974 152.524383,10.4358974 Z M319.352496,10.7590638 L300.311,10.759 L300.311,27.377 L319.352496,27.3773169 C320.351352,27.3773169 321.169682,26.6032789 321.242011,25.6214888 L321.247208,25.479881 L321.247208,12.6564997 C321.247208,11.6562078 320.474281,10.836702 319.4939,10.7642682 L319.352496,10.7590638 Z M233.997034,20.8717949 C235.566666,20.8717949 236.839104,22.1460614 236.839104,23.7179487 C236.839104,25.231618 235.659175,26.4693042 234.170165,26.5589083 L233.997034,26.5641026 L200.83956,26.5641026 C199.269928,26.5641026 197.997491,25.2898361 197.997491,23.7179487 C197.997491,22.2042794 199.177419,20.9665932 200.666429,20.8769891 L200.83956,20.8717949 L233.997034,20.8717949 Z M233.997034,22.7692308 L200.83956,22.7692308 C200.316349,22.7692308 199.892203,23.1939863 199.892203,23.7179487 C199.892203,24.2044853 200.257921,24.6054812 200.729078,24.6602839 L200.83956,24.6666667 L233.997034,24.6666667 C234.520245,24.6666667 234.944391,24.2419112 234.944391,23.7179487 C234.944391,23.1939863 234.520245,22.7692308 233.997034,22.7692308 Z M323.141,14.107 L323.141,24.378 L386.742683,24.3781422 L391.566136,24.4475308 C402.378754,24.586777 410.096255,24.5674187 414.710283,24.3898856 L414.988896,24.3788186 C420.041093,24.17167 423.26976,23.5077977 424.52154,22.5343697 C426.245735,21.0107915 426.545246,19.4793673 425.509951,17.6517176 C424.488763,15.8489715 421.468694,14.801662 416.386124,14.6838648 L402.459694,14.413953 L323.141,14.107 Z M93,14 C93.5522847,14 94,14.4477153 94,15 L94,19 C94,19.5522847 93.5522847,20 93,20 L60,20 C59.4477153,20 59,19.5522847 59,19 L59,15 C59,14.4477153 59.4477153,14 60,14 L93,14 Z M151,14 C151.552285,14 152,14.4477153 152,15 L152,19 C152,19.5522847 151.552285,20 151,20 L118,20 C117.447715,20 117,19.5522847 117,19 L117,15 C117,14.4477153 117.447715,14 118,14 L151,14 Z M248.681059,6.64102564 C251.558716,6.64102564 253.891519,8.97718086 253.891519,11.8589744 C253.891519,14.6668757 251.676814,16.9567615 248.901312,17.0723455 L248.681059,17.0769231 L179.524041,17.0769231 C176.646383,17.0769231 174.31358,14.7407679 174.31358,11.8589744 C174.31358,9.051073 176.528286,6.76118721 179.303787,6.64560326 L179.524041,6.64102564 L248.681059,6.64102564 Z M248.681059,8.53846154 L179.524041,8.53846154 C177.692804,8.53846154 176.208293,10.0251058 176.208293,11.8589744 C176.208293,13.6296061 177.592189,15.0765471 179.335886,15.1742308 L179.524041,15.1794872 L248.681059,15.1794872 C250.512295,15.1794872 251.996806,13.692843 251.996806,11.8589744 C251.996806,10.0251058 250.512295,8.53846154 248.681059,8.53846154 Z" id="Combined-Shape"></path>
        </g>
    </g>
</svg>