<?xml version="1.0" encoding="UTF-8"?>
<svg width="447px" height="167px" viewBox="0 0 447 167" version="1.1" xmlns="http://www.w3.org/2000/svg" xmlns:xlink="http://www.w3.org/1999/xlink">
    <!-- Generator: Sketch 61.2 (89653) - https://sketch.com -->
    <title>icon/a05-frame-01</title>
    <desc>Created with Sketch.</desc>
    <g id="icon/a05-frame-01" stroke="none" stroke-width="1" fill="none" fill-rule="evenodd">
        <g id="Group-7" transform="translate(1.000000, 0.000000)" fill="#FFFFFF" fill-rule="nonzero">
            <path d="M94.2696985,7.27877755 C94.3316075,7.34451256 94.3838267,7.41788822 94.4253646,7.49667216 L94.4795362,7.61862523 L94.4829668,7.63195681 L94.5192748,7.66038222 C94.5536635,7.68459112 94.598906,7.71223839 94.656336,7.74256384 L94.7517884,7.7899656 L94.8665225,7.84081446 C95.6688376,8.17781802 97.081107,8.41079182 99.2103956,8.46895644 L99.5719344,8.4770198 L100.295834,8.48316088 L117.424567,8.48316088 C117.934568,8.48316088 118.354904,8.8668846 118.41235,9.36123896 L118.41904,9.47716029 L118.419,13.973 L332.932449,13.9732526 L335.396605,13.97956 C375.389841,14.1539241 402.905594,17.8247226 418.014007,25.040258 C433.380909,32.3792436 442.646203,44.9278585 445.758771,62.5928543 L445.863662,63.2040198 L445.875934,63.3167048 C446.855449,82.3562261 442.035461,97.3933229 431.396925,108.359321 C420.949174,119.128662 399.034329,125.182279 365.603365,126.642844 L363.542182,126.726529 L333.875796,127.460753 C333.49111,129.173525 332.000666,130.468397 330.193004,130.557206 L329.994467,130.562072 L310.275,130.562 L310.275826,152.090009 C310.275826,160.218998 303.767358,166.828579 295.674804,166.996719 L295.358719,167 L14.917107,167 C6.78423797,167 0.171502961,160.494637 0.00328241683,152.405943 L0,152.090009 L0,85.4920489 C0,77.3630595 6.50846746,70.7534789 14.6010219,70.5853386 L14.917107,70.5820578 L295.358719,70.5820578 C303.491588,70.5820578 310.104323,77.0874205 310.272543,85.1761146 L310.275826,85.4920489 L310.275,109.248 L329.994467,109.248584 C331.95828,109.248584 333.58972,110.670964 333.913835,112.541237 L333.381323,112.528935 C387.88979,113.984733 419.111042,105.96315 427.047668,88.8013476 C434.962026,71.687699 432.303062,56.6575064 419.030638,43.4890548 L418.670486,43.1346335 L418.345233,42.8922407 C411.312735,37.7231423 400.466283,34.1308298 385.811679,32.1505798 L385.022968,32.0460373 C370.222374,30.122074 346.368489,29.0603343 313.483302,28.8642888 L309.281352,28.8441296 L118.419,28.844 L118.41904,32.8362248 C118.41904,33.3459833 118.035134,33.7661184 117.540543,33.8235368 L117.424567,33.8302242 L100.218297,33.8271983 C98.9796822,33.7303773 98.1135594,33.7303773 97.6677875,33.8134036 C96.6088534,34.010633 96.0162878,34.3516571 94.8537306,35.7298172 L94.6749425,35.9444315 L94.0845772,36.6722539 C90.8592062,40.5368381 86.1478188,42.5126645 80.0155726,42.6090404 L79.54106,42.6127471 L28.9544872,41.7560751 C27.3296086,41.7560751 25.9189529,40.8338732 25.2592483,39.4922452 L25.1791811,39.7472772 C23.2577765,39.1467535 22.0139655,37.4768625 21.3822689,34.7996178 L3.19278431,34.7980792 C1.51050746,34.7980792 0.100376514,33.5753149 0.00512643323,31.9875557 L0,31.816081 L0,9.94809414 C0,8.33535797 1.3521214,7.05698202 3.01362923,6.9707358 L3.19278431,6.96609593 L21.7669818,6.96571744 C22.3978876,5.34315001 23.3688248,4.05563388 24.6860725,3.11835284 L24.9289319,2.95210211 L24.9800871,3.03045629 C25.4040977,1.35476226 26.920276,0.103706962 28.7428724,0.0133348193 L28.9544872,0.0081001029 L79.5240604,0.00867587178 C84.6416319,-0.16550139 89.5654213,2.28377577 94.2696985,7.27877755 Z M295.358719,72.5700566 L14.917107,72.5700566 C7.88056035,72.5700566 2.15700355,78.1889528 1.99258131,85.182626 L1.9889476,85.4920489 L1.9889476,152.090009 C1.9889476,159.123199 7.61052546,164.844025 14.6075365,165.008369 L14.917107,165.012001 L295.358719,165.012001 C302.395265,165.012001 308.118822,159.393105 308.283244,152.399432 L308.286878,152.090009 L308.286,151.46 L304.237146,151.460036 C302.712691,151.460036 301.322318,150.589224 300.657467,149.218028 C296.575484,140.799088 294.540046,130.654311 294.540046,118.791029 C294.540046,106.984603 296.389947,96.8902507 300.100354,88.5121721 C300.709834,87.1359711 302.041111,86.2272143 303.533366,86.1507858 L303.7378,86.1455571 L308.286,86.145 L308.286878,85.4920489 C308.286878,78.4588589 302.6653,72.7380324 295.668289,72.5736886 L295.358719,72.5700566 Z M308.286,88.133 L303.737806,88.1335559 C302.950719,88.1335603 302.237672,88.5974869 301.91908,89.3168647 C298.329225,97.4227369 296.528994,107.246058 296.528994,118.791029 C296.528994,130.370247 298.505467,140.22114 302.447302,148.35103 C302.755983,148.987658 303.377456,149.40856 304.074945,149.465441 L304.237146,149.472038 L308.286,149.472 L308.286,88.133 Z M108.594757,117.77 C110.416893,116.76 112.793592,116.73 112.99165,118.02 C113.189709,119.31 111.842913,119.65 111.555728,119.65 C110.292928,119.844893 109.193419,120.625796 108.584854,121.76 C107.832233,123.17 108.495728,125.86 111.981553,126.76 C114.952427,127.53 117.131068,125.88 117.586602,126.2 C117.972816,126.47 117.54699,127.41 116.041748,128.14 L116.041748,128.14 L115.711374,128.286265 C114.71189,128.702478 113.639431,128.914958 112.555922,128.910085 C108.60466,128.910085 105.396117,126.19 105.396117,122.83 C105.473616,120.682037 106.697948,118.745239 108.594757,117.77 Z M310.275,111.236 L310.275,128.574 L329.994467,128.574073 C331.034778,128.574073 331.888545,127.775762 331.976028,126.758604 C331.952235,126.680906 331.939599,126.598955 331.937502,126.514268 C331.934724,126.402112 331.950643,126.293835 331.98242,126.192422 L331.983414,113.224582 C331.983414,112.176547 331.172045,111.317927 330.142904,111.242036 L329.994467,111.236583 L310.275,111.236 Z M108.416505,109.22 C110.733786,109 110.743689,111.86 115.487184,112 C118.598423,111.885891 121.465136,113.695648 122.726214,116.57 C124.033398,119.44 122.953981,121.57 123.488738,123.12 C124.023495,124.67 125.16233,124.98 125.23165,126.33 C125.283979,127.297543 124.572438,128.135079 123.617476,128.23 C122.727048,128.373296 121.841211,127.947901 121.38932,127.16 C120.54546,125.740039 120.219681,124.066877 120.46835,122.43 C120.616893,120.48 120.46835,118.2 119.567184,117 C118.655981,115.735485 117.231343,114.950124 115.685243,114.86 C113.348155,114.76 110.317864,115.06 107.970874,113.46 C105.623883,111.86 106.554757,109.36 108.416505,109.22 Z M118.419,15.961 L118.419,26.856 L309.284993,26.8561308 L313.496699,26.8763451 C346.111735,27.0708157 369.87543,28.1155046 384.805972,30.0137681 L385.279479,30.0746408 C400.641685,32.0716094 412.056539,35.7995056 419.530159,41.2955296 L419.919868,41.5864268 L420.012999,41.6665113 C434.240509,55.5184926 437.200989,71.5843146 428.853071,89.6354755 C420.480267,107.74045 388.853049,115.928567 333.973976,114.533059 L333.972,125.469 L363.480229,124.739535 C397.588652,123.458522 419.76471,117.49383 429.969044,106.975399 C440.062998,96.5707457 444.72072,82.3137182 443.923898,64.1382832 L443.892331,63.4768313 L443.799497,62.9349604 C440.831221,46.0914452 432.137687,34.1705187 417.669558,27.0821832 L417.156521,26.8340132 C402.383592,19.7786996 375.100845,16.1404304 335.379153,15.9675082 L332.931671,15.9612514 L118.419,15.961 Z M157.614175,113.73 C157.673592,113.76 161.020777,113.65 163.060777,115.63 L163.060777,115.67 C164.082484,116.675661 164.636296,118.070135 164.585825,119.51 C164.640056,120.950526 164.085654,122.346485 163.060777,123.35 C161.569227,124.56565 159.698717,125.207079 157.782524,125.16 L151.672427,125.16 L151.672427,123.16 L152.890485,123.16 L152.890485,115.73 L151.672427,115.73 L151.672427,113.73 L157.614175,113.73 Z M175.746408,113 L182.460583,124 L180.806796,125 L179.271845,122.49 L172.003107,122.49 L170.359223,125 L168.754951,124 L175.746408,113 Z M139.779029,113 L146.503107,124 L144.839417,125 L143.304466,122.49 L136.035728,122.49 L134.431456,125 L132.797476,124 L139.779029,113 Z M199.364854,113 L206.079029,124 L204.425243,125 L199.335146,116.64 L196.364272,121.31 L193.50233,116.64 L188.184466,125 L186.53068,124 L193.522136,113 L196.393981,117.67 L199.364854,113 Z M117.378641,120.72 C118.547184,121.17 117.873786,123.6 114.902913,124.28 C112.338058,124.86 110.506019,123.34 110.862524,122.78 C111.219029,122.22 112.060777,123.05 114.051262,122.72 C116.031845,122.38 116.210097,120.27 117.378641,120.72 Z M157.614175,115.77 L154.841359,115.77 L154.841359,123.19 L157.633262,123.190868 C158.009543,123.1968 160.392932,123.198667 161.723883,121.92 C162.314694,121.324305 162.643225,120.517226 162.642131,119.679866 L162.635,119.485 L162.639134,119.302307 C162.629029,118.473913 162.29872,117.678869 161.713981,117.09 C160.287961,115.7 157.643883,115.77 157.614175,115.77 Z M139.74932,116.7 L137.293398,120.56 L142.106214,120.56 L139.74932,116.7 Z M175.706796,116.66 L173.250874,120.52 L178.073592,120.56 L175.706796,116.66 Z M115.43767,117.59 C116.008431,117.67756 116.412424,118.199565 116.358641,118.78 C116.424088,119.36992 116.018325,119.907429 115.43767,120 C114.902913,120 114.526602,119.49 114.526602,118.81 C114.526602,118.13 114.932621,117.59 115.43767,117.59 Z M80.227,1.991 L80.2284059,40.6169288 C85.6659342,40.4864787 89.742833,38.7531789 92.5347906,35.4256196 L92.7673285,35.141056 L93.1715376,34.6436134 C94.7362687,32.7623202 95.7094178,32.1559363 97.3034354,31.859046 C97.9101884,31.7460366 98.8072124,31.7366191 99.9716479,31.8178375 L100.295834,31.8422254 L116.430009,31.8418063 L116.430009,10.4708191 L100.295834,10.4711597 C95.6143134,10.4711597 93.3282577,9.77541671 92.7193796,8.61423741 L92.6736723,8.51907234 L92.6501516,8.46194632 L92.4874304,8.29162827 C88.6016118,4.27960154 84.6662674,2.20220833 80.6387582,2.00393319 L80.2723659,1.99108326 L80.227,1.991 Z M78.238,1.996 L28.9544872,1.99609891 C27.8376112,1.99609891 26.9361569,2.81488837 26.8565141,3.83679569 L26.8507926,3.98409772 L26.8507926,37.7800775 C26.8507926,38.8199333 27.7014798,39.6859889 28.8111143,39.7626968 L28.9713312,39.7682189 L78.238,40.602 L78.238,1.996 Z M24.8609562,5.61621899 C23.5992447,7.03335273 22.9304397,9.14620821 22.8764512,12.0077681 L22.8728974,12.3887216 L22.8728974,29.6910421 C22.8728974,33.746961 23.5791143,36.2564079 24.8609753,37.3430452 L24.8609562,5.61621899 Z M21.1958176,8.95418018 L3.19278431,8.95409474 C2.55267764,8.95409474 2.05876122,9.36216714 1.99575062,9.84386755 L1.9889476,9.94809414 L1.9889476,31.816081 C1.9889476,32.3065934 2.44019024,32.7473666 3.05795996,32.8039563 L3.19278431,32.8100804 L21.0448101,32.8114669 C20.949072,31.9685632 20.8965459,31.0537907 20.8859574,30.0683565 L20.8839498,29.6910421 L20.8839498,12.3887216 C20.8839498,11.1435335 20.9875445,9.99781273 21.1958176,8.95418018 Z M51.7564103,17.0542302 L52.4905533,17.549711 L49.2786775,23 L46.1585695,17.549711 L46.9385965,17.0542302 L47.6727395,18.2929322 L51.0222672,18.2929322 L51.7564103,17.0542302 Z M43.4973009,17.0542302 L44.2773279,17.549711 L41.0195682,23 L39.6889339,20.6712401 L38.3124157,23 L35.1923077,17.549711 L35.9723347,17.0542302 L38.3124157,21.216269 L39.6889339,18.8875092 L41.0195682,21.216269 L43.4973009,17.0542302 Z M68.4122807,17.0542302 L69.1923077,17.549711 L65.9345479,23 L62.8144399,17.549711 L63.5944669,17.0542302 L64.282726,18.2929322 L67.6322537,18.2929322 L68.4122807,17.0542302 Z M57.5836707,17.0046821 L60.428475,17.0046821 L60.428475,17.9956437 L59.8778677,17.9956437 L59.8778677,21.6622018 L60.428475,21.6622018 L60.428475,22.6531634 L57.6754386,22.6531634 C57.6295547,22.6036153 56.1153846,22.7027115 55.1518219,21.6622018 C54.6929825,21.166721 54.4176788,20.4730478 54.4635628,19.7793747 C54.4176788,19.0857015 54.6929825,18.3920284 55.1518219,17.8965476 C55.840081,17.3019706 56.7118758,16.955134 57.5836707,17.0046821 Z M55.7024291,18.5902207 C55.4730094,18.8875092 55.3353576,19.3334419 55.3353576,19.7793747 C55.3353576,20.2253074 55.4730094,20.6712401 55.7483131,20.9685286 C56.356879,21.6256927 57.5008,21.6158105 57.619527,21.6129499 L58.914305,21.6126537 L58.914305,17.9460956 L57.6295547,17.9460956 C57.5836707,17.9460956 56.3906883,17.8965476 55.7024291,18.5902207 Z M50.425776,19.2343458 L48.1774629,19.2343458 L49.2786775,21.166721 L50.425776,19.2343458 Z M67.1275304,19.2343458 L64.8792173,19.2343458 L65.9804318,21.166721 L67.1275304,19.2343458 Z" id="Combined-Shape"></path>
        </g>
    </g>
</svg>