<?xml version="1.0" encoding="UTF-8"?>
<svg width="57px" height="114px" viewBox="0 0 57 114" version="1.1" xmlns="http://www.w3.org/2000/svg" xmlns:xlink="http://www.w3.org/1999/xlink">
    <!-- Generator: Sketch 61.2 (89653) - https://sketch.com -->
    <title>icon/android-phone</title>
    <desc>Created with Sketch.</desc>
    <g id="icon/android-phone" stroke="none" stroke-width="1" fill="none" fill-rule="evenodd">
        <g id="android-phone" fill="#FFFFFF" fill-rule="nonzero">
            <path d="M49.02,0 C53.4272322,0 57,3.5727677 57,7.98 L57,106.02 C57,110.427232 53.4272322,114 49.02,114 L7.98,114 C3.57276769,114 0,110.427232 0,106.02 L0,7.98 C0,3.5727677 3.57276769,0 7.98,0 L49.02,0 Z M28.5,2.28 L28.49886,2.28 L28.5,4.25997071 L8.35127929,4.25997071 C5.00475061,4.25997071 3.02259598,5.10217691 2.40481541,6.78658934 C2.32315893,7.17130476 2.28,7.57061223 2.28,7.98 L2.28,106.02 C2.28,106.309751 2.3016198,106.594453 2.34333425,106.87258 C2.88319795,108.679262 4.88561611,109.5825 8.35127929,109.5825 L28.5,109.5825 L28.5057,109.5825 L48.6487207,109.5825 C52.1143839,109.5825 54.1168021,108.679262 54.6559752,106.872787 C54.6983802,106.594453 54.72,106.309751 54.72,106.02 L54.72,7.98 C54.72,7.57061223 54.6768411,7.17130476 54.5948249,6.78637935 C53.977404,5.10217691 51.9952494,4.25997071 48.6487207,4.25997071 L28.5,4.25997071 L28.5,2.28 Z M30.21,100.32 C31.1544069,100.32 31.92,101.085593 31.92,102.03 L31.92,105.45 C31.92,106.394407 31.1544069,107.16 30.21,107.16 L26.79,107.16 C25.8455931,107.16 25.08,106.394407 25.08,105.45 L25.08,102.03 C25.08,101.085593 25.8455931,100.32 26.79,100.32 L30.21,100.32 Z M16.53,100.32 C16.8448023,100.32 17.1,100.575198 17.1,100.89 L17.1,106.59 C17.1,106.904803 16.8448023,107.16 16.53,107.16 C16.2151977,107.16 15.96,106.904803 15.96,106.59 L15.96,100.89 C15.96,100.575198 16.2151977,100.32 16.53,100.32 Z M14.25,100.32 C14.5648023,100.32 14.82,100.575198 14.82,100.89 L14.82,106.59 C14.82,106.904803 14.5648023,107.16 14.25,107.16 C13.9351977,107.16 13.68,106.904803 13.68,106.59 L13.68,100.89 C13.68,100.575198 13.9351977,100.32 14.25,100.32 Z M11.97,100.32 C12.2848023,100.32 12.54,100.575198 12.54,100.89 L12.54,106.59 C12.54,106.904803 12.2848023,107.16 11.97,107.16 C11.6551977,107.16 11.4,106.904803 11.4,106.59 L11.4,100.89 C11.4,100.575198 11.6551977,100.32 11.97,100.32 Z M45.9236799,100.481681 C46.1491884,100.701332 46.1539372,101.062204 45.9342866,101.287713 L43.5457007,103.74 L45.9342866,106.192289 C46.1539372,106.417797 46.1491884,106.77867 45.9236799,106.998321 C45.6981713,107.217971 45.3372985,107.213222 45.1176479,106.987714 L42.3416806,104.137713 C42.1261065,103.91639 42.1261065,103.563612 42.3416806,103.342288 L45.1176479,100.492288 C45.3372985,100.266779 45.6981713,100.26203 45.9236799,100.481681 Z M30.21,101.46 L26.79,101.46 C26.4751977,101.46 26.22,101.715198 26.22,102.03 L26.22,105.45 C26.22,105.764802 26.4751977,106.02 26.79,106.02 L30.21,106.02 C30.5248023,106.02 30.78,105.764802 30.78,105.45 L30.78,102.03 C30.78,101.715198 30.5248023,101.46 30.21,101.46 Z M49.02,7.98 C50.2792092,7.98 51.3,9.00079077 51.3,10.26 C51.3,11.5192092 50.2792092,12.54 49.02,12.54 C47.7607908,12.54 46.74,11.5192092 46.74,10.26 C46.74,9.00079077 47.7607908,7.98 49.02,7.98 Z" id="Shape"></path>
        </g>
    </g>
</svg>