<?xml version="1.0" encoding="UTF-8"?>
<svg width="19px" height="24px" viewBox="0 0 19 24" version="1.1" xmlns="http://www.w3.org/2000/svg" xmlns:xlink="http://www.w3.org/1999/xlink">
    <!-- Generator: Sketch 61.2 (89653) - https://sketch.com -->
    <title>icon/apple-logo</title>
    <desc>Created with Sketch.</desc>
    <g id="icon/apple-logo" stroke="none" stroke-width="1" fill="none" fill-rule="evenodd">
        <g fill="#FFFFFF" fill-rule="nonzero" id="Path">
            <path d="M12.9641108,0.565217391 C11.9282493,0.657139678 10.7175179,1.50781033 10.0119663,2.61555178 C9.36834786,3.62046491 8.83888057,5.11303355 9.04532423,6.56353607 C10.1771213,6.60871821 11.3465639,5.7377935 12.0241849,4.61135599 C12.6580884,3.56281873 13.1377664,2.07959811 12.9641108,0.565217391 Z"></path>
            <path d="M18.3563151,8.81660489 C17.2177019,7.3919746 15.6175263,6.56521739 14.1063266,6.56521739 C12.1113205,6.56521739 11.2674399,7.51820766 9.8813625,7.51820766 C8.45218743,7.51820766 7.36640363,6.56799174 5.6411057,6.56799174 C3.94639323,6.56799174 2.14185116,7.60143825 0.997676943,9.36870114 C-0.610840145,11.8572958 -0.335571015,16.5362422 2.27114423,20.5216004 C3.20400073,21.9476178 4.44966305,23.5511939 6.07903386,23.5652174 C7.52906267,23.5789374 7.93779562,22.6370446 9.90221623,22.6273343 C11.8666368,22.6162369 12.2392233,23.5775503 13.6864716,23.5622913 C15.3172327,23.5498067 16.6310172,21.7728336 17.5638737,20.3468161 C18.232583,19.324467 18.4814374,18.8098245 19,17.6556937 C15.2282568,16.2227403 14.6234989,10.8710133 18.3563151,8.81660489 Z"></path>
        </g>
    </g>
</svg>