<?xml version="1.0" encoding="UTF-8"?>
<svg width="162px" height="20px" viewBox="0 0 162 20" version="1.1" xmlns="http://www.w3.org/2000/svg" xmlns:xlink="http://www.w3.org/1999/xlink">
    <!-- Generator: Sketch 61.2 (89653) - https://sketch.com -->
    <title>icon/CASA-Hub-A05-wh</title>
    <desc>Created with Sketch.</desc>
    <g id="icon/CASA-Hub-A05-wh" stroke="none" stroke-width="1" fill="none" fill-rule="evenodd">
        <path d="M7.50585938,19.2636719 C8.17122396,19.2636719 8.78417969,19.2021484 9.34472656,19.0791016 C9.90527344,18.9560547 10.4020182,18.8056641 10.8349609,18.6279297 C11.2679036,18.4501953 11.6302083,18.2679036 11.921875,18.0810547 C12.2135417,17.8942057 12.4049479,17.7552083 12.4960938,17.6640625 C12.5872396,17.5729167 12.6510417,17.4954427 12.6875,17.4316406 C12.7239583,17.3678385 12.7535807,17.2949219 12.7763672,17.2128906 C12.7991536,17.1308594 12.8151042,17.0351562 12.8242188,16.9257812 C12.8333333,16.8164062 12.8378906,16.6888021 12.8378906,16.5429688 C12.8378906,16.3333333 12.8310547,16.1601562 12.8173828,16.0234375 C12.8037109,15.8867188 12.7832031,15.7796224 12.7558594,15.7021484 C12.7285156,15.6246745 12.6920573,15.5722656 12.6464844,15.5449219 C12.6009115,15.5175781 12.546224,15.5039062 12.4824219,15.5039062 C12.3457031,15.5039062 12.1588542,15.5904948 11.921875,15.7636719 C11.6848958,15.936849 11.3818359,16.1305339 11.0126953,16.3447266 C10.6435547,16.5589193 10.1969401,16.7526042 9.67285156,16.9257812 C9.14876302,17.0989583 8.53580729,17.1855469 7.83398438,17.1855469 C7.00455729,17.1855469 6.26171875,17.0374349 5.60546875,16.7412109 C4.94921875,16.444987 4.39550781,16.007487 3.94433594,15.4287109 C3.49316406,14.8499349 3.1468099,14.1298828 2.90527344,13.2685547 C2.66373698,12.4072266 2.54296875,11.4160156 2.54296875,10.2949219 C2.54296875,9.16471354 2.66829427,8.15983073 2.91894531,7.28027344 C3.16959635,6.40071615 3.52278646,5.65559896 3.97851562,5.04492188 C4.43424479,4.43424479 4.98339844,3.97167969 5.62597656,3.65722656 C6.26855469,3.34277344 6.98177083,3.18554688 7.765625,3.18554688 C8.48567708,3.18554688 9.1031901,3.27441406 9.61816406,3.45214844 C10.133138,3.62988281 10.570638,3.82584635 10.9306641,4.04003906 C11.2906901,4.25423177 11.5846354,4.45019531 11.8125,4.62792969 C12.0403646,4.80566406 12.218099,4.89453125 12.3457031,4.89453125 C12.4186198,4.89453125 12.4801432,4.87402344 12.5302734,4.83300781 C12.5804036,4.79199219 12.6236979,4.7281901 12.6601562,4.64160156 C12.6966146,4.55501302 12.7239583,4.44791667 12.7421875,4.3203125 C12.7604167,4.19270833 12.7695312,4.03776042 12.7695312,3.85546875 C12.7695312,3.69140625 12.7626953,3.55013021 12.7490234,3.43164062 C12.7353516,3.31315104 12.7171224,3.21061198 12.6943359,3.12402344 C12.6715495,3.0374349 12.6419271,2.96223958 12.6054688,2.8984375 C12.5690104,2.83463542 12.4892578,2.74121094 12.3662109,2.61816406 C12.2431641,2.49511719 12.0221354,2.33789062 11.703125,2.14648438 C11.3841146,1.95507812 11.0195312,1.78645833 10.609375,1.640625 C10.1992188,1.49479167 9.75260417,1.37402344 9.26953125,1.27832031 C8.78645833,1.18261719 8.28971354,1.13476562 7.77929687,1.13476562 C6.62174479,1.13476562 5.56673177,1.34440104 4.61425781,1.76367188 C3.66178385,2.18294271 2.84375,2.79134115 2.16015625,3.58886719 C1.4765625,4.38639323 0.945638021,5.359375 0.567382812,6.5078125 C0.189127604,7.65625 0,8.96419271 0,10.4316406 C0,11.8626302 0.175455729,13.1272786 0.526367188,14.2255859 C0.877278646,15.3238932 1.37858073,16.2467448 2.03027344,16.9941406 C2.68196615,17.7415365 3.4703776,18.3066406 4.39550781,18.6894531 C5.32063802,19.0722656 6.35742188,19.2636719 7.50585938,19.2636719 Z M28.1777344,19.1269531 C28.4602865,19.1269531 28.6858724,19.1178385 28.8544922,19.0996094 C29.023112,19.0813802 29.1438802,19.0403646 29.2167969,18.9765625 C29.2897135,18.9127604 29.3238932,18.8193359 29.3193359,18.6962891 C29.3147786,18.5732422 29.2760417,18.4114583 29.203125,18.2109375 L29.203125,18.2109375 L23.2695313,1.77734375 C23.2330729,1.67708333 23.1829427,1.59277344 23.1191406,1.52441406 C23.0553385,1.45605469 22.9641927,1.40364583 22.8457031,1.3671875 C22.7272135,1.33072917 22.5722656,1.30566406 22.3808594,1.29199219 C22.1894531,1.27832031 21.9479167,1.27148438 21.65625,1.27148438 C21.3828125,1.27148438 21.1572266,1.27832031 20.9794922,1.29199219 C20.8017578,1.30566406 20.6559245,1.33072917 20.5419922,1.3671875 C20.4280599,1.40364583 20.3414714,1.45377604 20.2822266,1.51757812 C20.2229818,1.58138021 20.1751302,1.66341146 20.1386719,1.76367188 L20.1386719,1.76367188 L14.2050781,18.1972656 C14.1321615,18.3977865 14.0934245,18.5595703 14.0888672,18.6826172 C14.0843099,18.8056641 14.1162109,18.8990885 14.1845703,18.9628906 C14.2529297,19.0266927 14.3714193,19.069987 14.5400391,19.0927734 C14.7086589,19.1155599 14.9251302,19.1269531 15.1894531,19.1269531 C15.4446615,19.1269531 15.6520182,19.1178385 15.8115234,19.0996094 C15.9710286,19.0813802 16.0940755,19.0517578 16.1806641,19.0107422 C16.2672526,18.9697266 16.3333333,18.9195964 16.3789063,18.8603516 C16.4244792,18.8011068 16.4609375,18.7304688 16.4882813,18.6484375 L16.4882813,18.6484375 L17.9375,14.3964844 L25.2929688,14.3964844 L26.8105469,18.703125 C26.8470052,18.7851562 26.8857422,18.8535156 26.9267578,18.9082031 C26.9677734,18.9628906 27.0315755,19.0061849 27.1181641,19.0380859 C27.2047526,19.069987 27.3323568,19.0927734 27.5009766,19.1064453 C27.6695964,19.1201172 27.8951823,19.1269531 28.1777344,19.1269531 Z M24.6777344,12.5234375 L18.5253906,12.5234375 L21.5742188,3.70507812 L21.5878906,3.70507812 L24.6777344,12.5234375 Z M35.6425781,19.3046875 C36.4902344,19.3046875 37.2809245,19.1907552 38.0146484,18.9628906 C38.7483724,18.735026 39.3863932,18.3955078 39.9287109,17.9443359 C40.4710286,17.4931641 40.8948568,16.9440104 41.2001953,16.296875 C41.5055339,15.6497396 41.6582031,14.9114583 41.6582031,14.0820312 C41.6582031,13.3802083 41.5419922,12.7718099 41.3095703,12.2568359 C41.0771484,11.741862 40.7718099,11.2952474 40.3935547,10.9169922 C40.0152995,10.538737 39.5846354,10.210612 39.1015625,9.93261719 C38.6184896,9.6546224 38.1263021,9.39941406 37.625,9.16699219 C37.1236979,8.93457031 36.6315104,8.70442708 36.1484375,8.4765625 C35.6653646,8.24869792 35.2347005,7.99804688 34.8564453,7.72460938 C34.4781901,7.45117188 34.1751302,7.13671875 33.9472656,6.78125 C33.719401,6.42578125 33.6054688,6.00195312 33.6054688,5.50976562 C33.6054688,5.17252604 33.6647135,4.85351562 33.7832031,4.55273438 C33.9016927,4.25195312 34.0794271,3.9921875 34.3164062,3.7734375 C34.5533854,3.5546875 34.8541667,3.37923177 35.21875,3.24707031 C35.5833333,3.11490885 36.0117188,3.04882812 36.5039062,3.04882812 C37.0325521,3.04882812 37.5087891,3.11490885 37.9326172,3.24707031 C38.3564453,3.37923177 38.7233073,3.5250651 39.0332031,3.68457031 C39.343099,3.84407552 39.6051432,3.98763021 39.8193359,4.11523438 C40.0335286,4.24283854 40.1907552,4.30664062 40.2910156,4.30664062 C40.3548177,4.30664062 40.4117839,4.28613281 40.4619141,4.24511719 C40.5120443,4.20410156 40.5507812,4.14029948 40.578125,4.05371094 C40.6054688,3.9671224 40.6259766,3.86002604 40.6396484,3.73242188 C40.6533203,3.60481771 40.6601562,3.45898437 40.6601562,3.29492188 C40.6601562,3.12174479 40.655599,2.98046875 40.6464844,2.87109375 C40.6373698,2.76171875 40.6236979,2.66829427 40.6054688,2.59082031 C40.5872396,2.51334635 40.5644531,2.44954427 40.5371094,2.39941406 C40.5097656,2.34928385 40.4527995,2.28092448 40.3662109,2.19433594 C40.2796224,2.1077474 40.0996094,1.9938151 39.8261719,1.85253906 C39.5527344,1.71126302 39.2405599,1.58365885 38.8896484,1.46972656 C38.538737,1.35579427 38.1650391,1.26464844 37.7685547,1.19628906 C37.3720703,1.12792969 36.9778646,1.09375 36.5859375,1.09375 C35.8203125,1.09375 35.1070964,1.19628906 34.4462891,1.40136719 C33.7854818,1.60644531 33.2158203,1.90494792 32.7373047,2.296875 C32.2587891,2.68880208 31.8850911,3.17415365 31.6162109,3.75292969 C31.3473307,4.33170573 31.2128906,4.99023438 31.2128906,5.72851562 C31.2128906,6.44856771 31.3291016,7.06608073 31.5615234,7.58105469 C31.7939453,8.09602865 32.0970052,8.54492188 32.4707031,8.92773438 C32.844401,9.31054688 33.2682292,9.64322917 33.7421875,9.92578125 C34.2161458,10.2083333 34.703776,10.4658203 35.2050781,10.6982422 C35.7063802,10.9306641 36.1962891,11.1585286 36.6748047,11.3818359 C37.1533203,11.6051432 37.5794271,11.851237 37.953125,12.1201172 C38.3268229,12.3889974 38.6276042,12.7011719 38.8554688,13.0566406 C39.0833333,13.4121094 39.1972656,13.8404948 39.1972656,14.3417969 C39.1972656,14.8066406 39.1152344,15.2213542 38.9511719,15.5859375 C38.7871094,15.9505208 38.5524089,16.258138 38.2470703,16.5087891 C37.9417318,16.7594401 37.5771484,16.953125 37.1533203,17.0898438 C36.7294922,17.2265625 36.2623698,17.2949219 35.7519531,17.2949219 C35.077474,17.2949219 34.4827474,17.2151693 33.9677734,17.0556641 C33.4527995,16.8961589 33.0130208,16.7252604 32.6484375,16.5429688 C32.2838542,16.3606771 31.9853516,16.1920573 31.7529297,16.0371094 C31.5205078,15.8821615 31.3404948,15.8046875 31.2128906,15.8046875 C31.139974,15.8046875 31.0761719,15.820638 31.0214844,15.8525391 C30.9667969,15.8844401 30.921224,15.9414062 30.8847656,16.0234375 C30.8483073,16.1054688 30.8209635,16.2125651 30.8027344,16.3447266 C30.7845052,16.476888 30.7753906,16.6432292 30.7753906,16.84375 C30.7753906,17.1263021 30.8004557,17.351888 30.8505859,17.5205078 C30.9007161,17.6891276 30.9781901,17.828125 31.0830078,17.9375 C31.1878255,18.046875 31.3746745,18.1790365 31.6435547,18.3339844 C31.9124349,18.4889323 32.2451172,18.6393229 32.6416016,18.7851562 C33.0380859,18.9309896 33.4892578,19.0540365 33.9951172,19.1542969 C34.5009766,19.2545573 35.0501302,19.3046875 35.6425781,19.3046875 Z M57.2441406,19.1269531 C57.5266927,19.1269531 57.7522786,19.1178385 57.9208984,19.0996094 C58.0895182,19.0813802 58.2102865,19.0403646 58.2832031,18.9765625 C58.3561198,18.9127604 58.3902995,18.8193359 58.3857422,18.6962891 C58.3811849,18.5732422 58.3424479,18.4114583 58.2695312,18.2109375 L58.2695312,18.2109375 L52.3359375,1.77734375 C52.2994792,1.67708333 52.249349,1.59277344 52.1855469,1.52441406 C52.1217448,1.45605469 52.030599,1.40364583 51.9121094,1.3671875 C51.7936198,1.33072917 51.6386719,1.30566406 51.4472656,1.29199219 C51.2558594,1.27832031 51.0143229,1.27148438 50.7226562,1.27148438 C50.4492188,1.27148438 50.2236328,1.27832031 50.0458984,1.29199219 C49.8681641,1.30566406 49.7223307,1.33072917 49.6083984,1.3671875 C49.4944661,1.40364583 49.4078776,1.45377604 49.3486328,1.51757812 C49.289388,1.58138021 49.2415365,1.66341146 49.2050781,1.76367188 L49.2050781,1.76367188 L43.2714844,18.1972656 C43.1985677,18.3977865 43.1598307,18.5595703 43.1552734,18.6826172 C43.1507161,18.8056641 43.1826172,18.8990885 43.2509766,18.9628906 C43.3193359,19.0266927 43.4378255,19.069987 43.6064453,19.0927734 C43.7750651,19.1155599 43.9915365,19.1269531 44.2558594,19.1269531 C44.5110677,19.1269531 44.7184245,19.1178385 44.8779297,19.0996094 C45.0374349,19.0813802 45.1604818,19.0517578 45.2470703,19.0107422 C45.3336589,18.9697266 45.3997396,18.9195964 45.4453125,18.8603516 C45.4908854,18.8011068 45.5273438,18.7304688 45.5546875,18.6484375 L45.5546875,18.6484375 L47.0039062,14.3964844 L54.359375,14.3964844 L55.8769531,18.703125 C55.9134115,18.7851562 55.9521484,18.8535156 55.9931641,18.9082031 C56.0341797,18.9628906 56.0979818,19.0061849 56.1845703,19.0380859 C56.2711589,19.069987 56.398763,19.0927734 56.5673828,19.1064453 C56.7360026,19.1201172 56.9615885,19.1269531 57.2441406,19.1269531 Z M53.7441406,12.5234375 L47.5917969,12.5234375 L50.640625,3.70507812 L50.6542969,3.70507812 L53.7441406,12.5234375 Z M79.1328125,19.1269531 C79.3515625,19.1269531 79.5361328,19.1155599 79.6865234,19.0927734 C79.8369141,19.069987 79.9576823,19.0426432 80.0488281,19.0107422 C80.139974,18.9788411 80.203776,18.9355469 80.2402344,18.8808594 C80.2766927,18.8261719 80.2949219,18.7623698 80.2949219,18.6894531 L80.2949219,18.6894531 L80.2949219,1.70898438 C80.2949219,1.63606771 80.2766927,1.57226562 80.2402344,1.51757812 C80.203776,1.46289062 80.139974,1.41959635 80.0488281,1.38769531 C79.9576823,1.35579427 79.8369141,1.32845052 79.6865234,1.30566406 C79.5361328,1.2828776 79.3515625,1.27148438 79.1328125,1.27148438 C78.8958333,1.27148438 78.7044271,1.2828776 78.5585938,1.30566406 C78.4127604,1.32845052 78.2942708,1.35579427 78.203125,1.38769531 C78.1119792,1.41959635 78.0481771,1.46289062 78.0117188,1.51757812 C77.9752604,1.57226562 77.9570312,1.63606771 77.9570312,1.70898438 L77.9570312,1.70898438 L77.9570312,8.79101562 L69.9042969,8.79101562 L69.9042969,1.70898438 C69.9042969,1.63606771 69.8860677,1.57226562 69.8496094,1.51757812 C69.813151,1.46289062 69.749349,1.41959635 69.6582031,1.38769531 C69.5670573,1.35579427 69.4462891,1.32845052 69.2958984,1.30566406 C69.1455078,1.2828776 68.9563802,1.27148438 68.7285156,1.27148438 C68.5097656,1.27148438 68.3229167,1.2828776 68.1679688,1.30566406 C68.0130208,1.32845052 67.889974,1.35579427 67.7988281,1.38769531 C67.7076823,1.41959635 67.6438802,1.46289062 67.6074219,1.51757812 C67.5709635,1.57226562 67.5527344,1.63606771 67.5527344,1.70898438 L67.5527344,1.70898438 L67.5527344,18.6894531 C67.5527344,18.7623698 67.5709635,18.8261719 67.6074219,18.8808594 C67.6438802,18.9355469 67.7076823,18.9788411 67.7988281,19.0107422 C67.889974,19.0426432 68.0130208,19.069987 68.1679688,19.0927734 C68.3229167,19.1155599 68.5097656,19.1269531 68.7285156,19.1269531 C68.9563802,19.1269531 69.1455078,19.1155599 69.2958984,19.0927734 C69.4462891,19.069987 69.5670573,19.0426432 69.6582031,19.0107422 C69.749349,18.9788411 69.813151,18.9355469 69.8496094,18.8808594 C69.8860677,18.8261719 69.9042969,18.7623698 69.9042969,18.6894531 L69.9042969,18.6894531 L69.9042969,10.8417969 L77.9570312,10.8417969 L77.9570312,18.6894531 C77.9570312,18.7623698 77.9752604,18.8261719 78.0117188,18.8808594 C78.0481771,18.9355469 78.1119792,18.9788411 78.203125,19.0107422 C78.2942708,19.0426432 78.4127604,19.069987 78.5585938,19.0927734 C78.7044271,19.1155599 78.8958333,19.1269531 79.1328125,19.1269531 Z M89.0722656,19.3046875 C89.7740885,19.3046875 90.4667969,19.1269531 91.1503906,18.7714844 C91.8339844,18.4160156 92.5266927,17.8509115 93.2285156,17.0761719 L93.2285156,17.0761719 L93.2285156,18.703125 C93.2285156,18.7760417 93.2421875,18.8375651 93.2695312,18.8876953 C93.296875,18.9378255 93.3492839,18.9811198 93.4267578,19.0175781 C93.5042318,19.0540365 93.6090495,19.0813802 93.7412109,19.0996094 C93.8733724,19.1178385 94.0442708,19.1269531 94.2539062,19.1269531 C94.4453125,19.1269531 94.6070964,19.1178385 94.7392578,19.0996094 C94.8714193,19.0813802 94.9785156,19.0540365 95.0605469,19.0175781 C95.1425781,18.9811198 95.1995443,18.9378255 95.2314453,18.8876953 C95.2633464,18.8375651 95.2792969,18.7760417 95.2792969,18.703125 L95.2792969,18.703125 L95.2792969,6.3984375 C95.2792969,6.32552083 95.2587891,6.2639974 95.2177734,6.21386719 C95.1767578,6.16373698 95.1152344,6.11816406 95.0332031,6.07714844 C94.9511719,6.03613281 94.8372396,6.00878906 94.6914062,5.99511719 C94.5455729,5.98144531 94.3632812,5.97460938 94.1445312,5.97460938 C93.9166667,5.97460938 93.7320964,5.98144531 93.5908203,5.99511719 C93.4495443,6.00878906 93.3333333,6.03613281 93.2421875,6.07714844 C93.1510417,6.11816406 93.0895182,6.16373698 93.0576172,6.21386719 C93.0257161,6.2639974 93.0097656,6.32552083 93.0097656,6.3984375 L93.0097656,6.3984375 L93.0097656,14.9980469 C92.3808594,15.7727865 91.7861328,16.3606771 91.2255859,16.7617188 C90.6650391,17.1627604 90.1022135,17.3632812 89.5371094,17.3632812 C89.0996094,17.3632812 88.7167969,17.2789714 88.3886719,17.1103516 C88.0605469,16.9417318 87.789388,16.7047526 87.5751953,16.3994141 C87.3610026,16.0940755 87.2014974,15.7249349 87.0966797,15.2919922 C86.991862,14.8590495 86.9394531,14.2825521 86.9394531,13.5625 L86.9394531,13.5625 L86.9394531,6.3984375 C86.9394531,6.32552083 86.921224,6.2639974 86.8847656,6.21386719 C86.8483073,6.16373698 86.7867839,6.11816406 86.7001953,6.07714844 C86.6136068,6.03613281 86.4973958,6.00878906 86.3515625,5.99511719 C86.2057292,5.98144531 86.0234375,5.97460938 85.8046875,5.97460938 C85.5859375,5.97460938 85.4036458,5.98144531 85.2578125,5.99511719 C85.1119792,6.00878906 84.9934896,6.03613281 84.9023438,6.07714844 C84.8111979,6.11816406 84.7496745,6.16373698 84.7177734,6.21386719 C84.6858724,6.2639974 84.6699219,6.32552083 84.6699219,6.3984375 L84.6699219,6.3984375 L84.6699219,13.8632812 C84.6699219,14.7565104 84.7451172,15.5152995 84.8955078,16.1396484 C85.0458984,16.7639974 85.2942708,17.3108724 85.640625,17.7802734 C85.9869792,18.2496745 86.4404297,18.6210938 87.0009766,18.8945312 C87.5615234,19.1679688 88.2519531,19.3046875 89.0722656,19.3046875 Z M105.478516,19.3046875 C106.326172,19.3046875 107.078125,19.1451823 107.734375,18.8261719 C108.390625,18.5071615 108.944336,18.046875 109.395508,17.4453125 C109.84668,16.84375 110.188477,16.116862 110.420898,15.2646484 C110.65332,14.4124349 110.769531,13.453125 110.769531,12.3867187 C110.769531,11.4934896 110.678385,10.6458333 110.496094,9.84375 C110.313802,9.04166667 110.024414,8.3421224 109.62793,7.74511719 C109.231445,7.14811198 108.716471,6.671875 108.083008,6.31640625 C107.449544,5.9609375 106.686198,5.78320312 105.792969,5.78320312 C105.428385,5.78320312 105.082031,5.81966146 104.753906,5.89257812 C104.425781,5.96549479 104.097656,6.08170573 103.769531,6.24121094 C103.441406,6.40071615 103.106445,6.60807292 102.764648,6.86328125 C102.422852,7.11848958 102.069661,7.43294271 101.705078,7.80664062 L101.705078,7.80664062 L101.705078,0.4375 C101.705078,0.364583333 101.686849,0.30078125 101.650391,0.24609375 C101.613932,0.19140625 101.554688,0.145833333 101.472656,0.109375 C101.390625,0.0729166667 101.276693,0.0455729167 101.130859,0.02734375 C100.985026,0.00911458333 100.798177,0 100.570312,0 C100.351562,0 100.169271,0.00911458333 100.023438,0.02734375 C99.8776042,0.0455729167 99.7613932,0.0729166667 99.6748047,0.109375 C99.5882161,0.145833333 99.5289714,0.19140625 99.4970703,0.24609375 C99.4651693,0.30078125 99.4492188,0.364583333 99.4492188,0.4375 L99.4492188,0.4375 L99.4492188,18.703125 C99.4492188,18.7760417 99.4628906,18.8398438 99.4902344,18.8945312 C99.5175781,18.9492188 99.5722656,18.992513 99.6542969,19.0244141 C99.7363281,19.0563151 99.8411458,19.0813802 99.96875,19.0996094 C100.096354,19.1178385 100.251302,19.1269531 100.433594,19.1269531 C100.625,19.1269531 100.782227,19.1178385 100.905273,19.0996094 C101.02832,19.0813802 101.130859,19.0563151 101.212891,19.0244141 C101.294922,18.992513 101.354167,18.9492188 101.390625,18.8945312 C101.427083,18.8398438 101.445312,18.7760417 101.445312,18.703125 L101.445312,18.703125 L101.445312,17.1992188 C101.800781,17.5729167 102.138021,17.8919271 102.457031,18.15625 C102.776042,18.4205729 103.095052,18.6393229 103.414062,18.8125 C103.733073,18.9856771 104.058919,19.1110026 104.391602,19.1884766 C104.724284,19.2659505 105.086589,19.3046875 105.478516,19.3046875 Z M105.246094,17.3632812 C104.635417,17.3632812 104.047526,17.1650391 103.482422,16.7685547 C102.917318,16.3720703 102.32487,15.7955729 101.705078,15.0390625 L101.705078,15.0390625 L101.705078,10.1308594 C102.060547,9.67513021 102.395508,9.296875 102.709961,8.99609375 C103.024414,8.6953125 103.327474,8.44921875 103.619141,8.2578125 C103.910807,8.06640625 104.197917,7.9296875 104.480469,7.84765625 C104.763021,7.765625 105.05013,7.72460938 105.341797,7.72460938 C105.92513,7.72460938 106.41276,7.86360677 106.804688,8.14160156 C107.196615,8.41959635 107.511068,8.78645833 107.748047,9.2421875 C107.985026,9.69791667 108.151367,10.2220052 108.24707,10.8144531 C108.342773,11.406901 108.390625,12.0175781 108.390625,12.6464844 C108.390625,13.2207031 108.333659,13.7880859 108.219727,14.3486328 C108.105794,14.9091797 107.923503,15.4150391 107.672852,15.8662109 C107.422201,16.3173828 107.096354,16.6796875 106.695312,16.953125 C106.294271,17.2265625 105.811198,17.3632812 105.246094,17.3632812 Z M132.972656,19.1269531 C133.255208,19.1269531 133.480794,19.1178385 133.649414,19.0996094 C133.818034,19.0813802 133.938802,19.0403646 134.011719,18.9765625 C134.084635,18.9127604 134.118815,18.8193359 134.114258,18.6962891 C134.109701,18.5732422 134.070964,18.4114583 133.998047,18.2109375 L133.998047,18.2109375 L128.064453,1.77734375 C128.027995,1.67708333 127.977865,1.59277344 127.914062,1.52441406 C127.85026,1.45605469 127.759115,1.40364583 127.640625,1.3671875 C127.522135,1.33072917 127.367187,1.30566406 127.175781,1.29199219 C126.984375,1.27832031 126.742839,1.27148438 126.451172,1.27148438 C126.177734,1.27148438 125.952148,1.27832031 125.774414,1.29199219 C125.59668,1.30566406 125.450846,1.33072917 125.336914,1.3671875 C125.222982,1.40364583 125.136393,1.45377604 125.077148,1.51757812 C125.017904,1.58138021 124.970052,1.66341146 124.933594,1.76367188 L124.933594,1.76367188 L119,18.1972656 C118.927083,18.3977865 118.888346,18.5595703 118.883789,18.6826172 C118.879232,18.8056641 118.911133,18.8990885 118.979492,18.9628906 C119.047852,19.0266927 119.166341,19.069987 119.334961,19.0927734 C119.503581,19.1155599 119.720052,19.1269531 119.984375,19.1269531 C120.239583,19.1269531 120.44694,19.1178385 120.606445,19.0996094 C120.765951,19.0813802 120.888997,19.0517578 120.975586,19.0107422 C121.062174,18.9697266 121.128255,18.9195964 121.173828,18.8603516 C121.219401,18.8011068 121.255859,18.7304688 121.283203,18.6484375 L121.283203,18.6484375 L122.732422,14.3964844 L130.087891,14.3964844 L131.605469,18.703125 C131.641927,18.7851562 131.680664,18.8535156 131.72168,18.9082031 C131.762695,18.9628906 131.826497,19.0061849 131.913086,19.0380859 C131.999674,19.069987 132.127279,19.0927734 132.295898,19.1064453 C132.464518,19.1201172 132.690104,19.1269531 132.972656,19.1269531 Z M129.472656,12.5234375 L123.320312,12.5234375 L126.369141,3.70507812 L126.382812,3.70507812 L129.472656,12.5234375 Z M141.517578,19.3046875 C142.693359,19.3046875 143.682292,19.0836589 144.484375,18.6416016 C145.286458,18.1995443 145.935872,17.5751953 146.432617,16.7685547 C146.929362,15.9619141 147.284831,14.9980469 147.499023,13.8769531 C147.713216,12.7558594 147.820312,11.516276 147.820312,10.1582031 C147.820312,8.69986979 147.722331,7.4078776 147.526367,6.28222656 C147.330404,5.15657552 147,4.20865885 146.535156,3.43847656 C146.070312,2.66829427 145.457357,2.08496094 144.696289,1.68847656 C143.935221,1.29199219 142.994141,1.09375 141.873047,1.09375 C140.70638,1.09375 139.722005,1.31477865 138.919922,1.75683594 C138.117839,2.19889323 137.470703,2.82324219 136.978516,3.62988281 C136.486328,4.43652344 136.130859,5.40266927 135.912109,6.52832031 C135.693359,7.65397135 135.583984,8.89127604 135.583984,10.2402344 C135.583984,11.6985677 135.681966,12.9905599 135.87793,14.1162109 C136.073893,15.241862 136.404297,16.1897786 136.869141,16.9599609 C137.333984,17.7301432 137.94694,18.3134766 138.708008,18.7099609 C139.469076,19.1064453 140.405599,19.3046875 141.517578,19.3046875 Z M141.654297,17.3769531 C140.998047,17.3769531 140.439779,17.2447917 139.979492,16.9804688 C139.519206,16.7161458 139.140951,16.2923177 138.844727,15.7089844 C138.548503,15.125651 138.332031,14.3714193 138.195312,13.4462891 C138.058594,12.5211589 137.990234,11.3977865 137.990234,10.0761719 C137.990234,9.09179688 138.040365,8.17122396 138.140625,7.31445312 C138.240885,6.45768229 138.430013,5.71028646 138.708008,5.07226562 C138.986003,4.43424479 139.366536,3.93294271 139.849609,3.56835938 C140.332682,3.20377604 140.961589,3.02148438 141.736328,3.02148438 C142.173828,3.02148438 142.568034,3.07845052 142.918945,3.19238281 C143.269857,3.3063151 143.582031,3.48860677 143.855469,3.73925781 C144.128906,3.98990885 144.363607,4.30891927 144.55957,4.69628906 C144.755534,5.08365885 144.915039,5.54622396 145.038086,6.08398438 C145.161133,6.62174479 145.254557,7.24153646 145.318359,7.94335938 C145.382161,8.64518229 145.414062,9.43815104 145.414062,10.3222656 C145.414062,10.9785156 145.393555,11.6097005 145.352539,12.2158203 C145.311523,12.8219401 145.236328,13.3847656 145.126953,13.9042969 C145.017578,14.4238281 144.871745,14.8977865 144.689453,15.3261719 C144.507161,15.7545573 144.277018,16.1214193 143.999023,16.4267578 C143.721029,16.7320964 143.388346,16.9667969 143.000977,17.1308594 C142.613607,17.2949219 142.164714,17.3769531 141.654297,17.3769531 Z M154.738281,19.3046875 C155.722656,19.3046875 156.618164,19.172526 157.424805,18.9082031 C158.231445,18.6438802 158.926432,18.2587891 159.509766,17.7529297 C160.093099,17.2470703 160.544271,16.625 160.863281,15.8867188 C161.182292,15.1484375 161.341797,14.3053385 161.341797,13.3574219 C161.341797,12.5917969 161.211914,11.8945313 160.952148,11.265625 C160.692383,10.6367188 160.30957,10.101237 159.803711,9.65917969 C159.297852,9.2171224 158.666667,8.87532552 157.910156,8.63378906 C157.153646,8.3922526 156.269531,8.27148438 155.257812,8.27148438 C154.820312,8.27148438 154.435221,8.27604167 154.102539,8.28515625 C153.769857,8.29427083 153.44401,8.32161458 153.125,8.3671875 L153.125,8.3671875 L153.125,3.40429688 L159.728516,3.40429688 C159.892578,3.40429688 160.020182,3.31315104 160.111328,3.13085938 C160.202474,2.94856771 160.248047,2.69335938 160.248047,2.36523438 C160.248047,2.19205729 160.236654,2.04166667 160.213867,1.9140625 C160.191081,1.78645833 160.156901,1.68164062 160.111328,1.59960938 C160.065755,1.51757812 160.008789,1.45605469 159.94043,1.41503906 C159.87207,1.37402344 159.801432,1.35351562 159.728516,1.35351562 L159.728516,1.35351562 L151.894531,1.35351562 C151.630208,1.35351562 151.427409,1.42643229 151.286133,1.57226562 C151.144857,1.71809896 151.074219,1.94140625 151.074219,2.2421875 L151.074219,2.2421875 L151.074219,9.44726562 C151.074219,9.78450521 151.128906,10.0123698 151.238281,10.1308594 C151.347656,10.249349 151.529948,10.3085938 151.785156,10.3085938 C152.13151,10.3085938 152.505208,10.28125 152.90625,10.2265625 C153.307292,10.171875 153.785807,10.1445312 154.341797,10.1445312 C155.125651,10.1445312 155.80013,10.2151693 156.365234,10.3564453 C156.930339,10.4977214 157.397461,10.7119141 157.766602,10.9990234 C158.135742,11.2861328 158.40918,11.6461589 158.586914,12.0791016 C158.764648,12.5120443 158.853516,13.0110677 158.853516,13.5761719 C158.853516,14.250651 158.748698,14.8225911 158.539062,15.2919922 C158.329427,15.7613932 158.040039,16.1510417 157.670898,16.4609375 C157.301758,16.7708333 156.861979,16.9986979 156.351562,17.1445312 C155.841146,17.2903646 155.280599,17.3632812 154.669922,17.3632812 C154.013672,17.3632812 153.446289,17.3040365 152.967773,17.1855469 C152.489258,17.0670573 152.088216,16.9417318 151.764648,16.8095703 C151.441081,16.6774089 151.183594,16.554362 150.992188,16.4404297 C150.800781,16.3264974 150.659505,16.2695312 150.568359,16.2695312 C150.504557,16.2695312 150.447591,16.2877604 150.397461,16.3242188 C150.347331,16.3606771 150.304036,16.4176432 150.267578,16.4951172 C150.23112,16.5725911 150.206055,16.6728516 150.192383,16.7958984 C150.178711,16.9189453 150.171875,17.0579427 150.171875,17.2128906 C150.171875,17.3769531 150.176432,17.5182292 150.185547,17.6367188 C150.194661,17.7552083 150.210612,17.8531901 150.233398,17.9306641 C150.256185,18.008138 150.28125,18.0742188 150.308594,18.1289062 C150.335938,18.1835938 150.383789,18.2428385 150.452148,18.3066406 C150.520508,18.3704427 150.677734,18.4570312 150.923828,18.5664062 C151.169922,18.6757812 151.484375,18.7874349 151.867188,18.9013672 C152.25,19.0152995 152.6875,19.1110026 153.179688,19.1884766 C153.671875,19.2659505 154.191406,19.3046875 154.738281,19.3046875 Z" id="icon/CASAHubA05-wh" fill="#FFFFFF" fill-rule="nonzero"></path>
    </g>
</svg>