<?xml version="1.0" encoding="UTF-8"?>
<svg width="64px" height="27px" viewBox="0 0 64 27" version="1.1" xmlns="http://www.w3.org/2000/svg" xmlns:xlink="http://www.w3.org/1999/xlink">
    <!-- Generator: Sketch 61.2 (89653) - https://sketch.com -->
    <title>icon/hdmi</title>
    <desc>Created with Sketch.</desc>
    <g id="icon/hdmi" stroke="none" stroke-width="1" fill="none" fill-rule="evenodd">
        <path d="M60.5,0 C62.4329966,0 64,1.56700338 64,3.5 L64,3.5 L64,13.4776845 C64,14.8284014 63.2227708,16.0585672 62.0029231,16.638574 L62.0029231,16.638574 L57.3406545,18.8553649 C57.2165674,18.9143651 57.1222279,19.021829 57.0797968,19.1525127 L57.0797968,19.1525127 L55.3172916,24.580855 C54.8489525,26.023293 53.5049298,27 51.9883649,27 L51.9883649,27 L12.0116351,27 C10.5959645,27 9.32220475,26.1474494 8.75837115,24.7890354 L8.75837115,24.7890354 L8.68270844,24.580855 L6.92020319,19.1525127 C6.8826053,19.0367149 6.8040608,18.9387074 6.75923764,18.9103321 L6.75923764,18.9103321 L6.65934553,18.8553649 L1.99707693,16.638574 C0.868798863,16.1021063 0.113727093,15.005894 0.00798547893,13.7033151 L0.00798547893,13.7033151 L0,13.4776845 L0,3.5 C0,1.66399028 1.41804972,0.143997413 3.29564638,0.0064977607 L3.29564638,0.0064977607 L3.5,0 Z M3.55509128,2.99898798 L3.46110361,3.00142001 C3.20295791,3.0204653 3,3.23801379 3,3.5 L3,3.5 L2.99874276,13.4162831 L3.00169217,13.5191015 C3.01621585,13.6958947 3.12417622,13.8526314 3.2852967,13.9292401 L3.2852967,13.9292401 L8.00859394,16.1767721 L8.22911831,16.2959918 C8.96071597,16.7295607 9.51035758,17.4154007 9.77356887,18.2260656 L9.77356887,18.2260656 L11.5163565,23.5975843 L11.5502626,23.6928119 C11.6273346,23.878066 11.809511,24 12.0116351,24 L12.0116351,24 L51.9883649,24 C52.2050171,24 52.3970203,23.8604704 52.4639259,23.6544079 L52.4639259,23.6544079 L54.2264311,18.2260656 C54.523449,17.3112799 55.1838255,16.5590328 56.0524347,16.146031 L56.0524347,16.146031 L60.7147033,13.9292401 C60.8889673,13.846382 61,13.6706441 61,13.4776845 L61,13.4776845 L61,3.5 C61,3.22385763 60.7761424,3 60.5,3 L60.5,3 L3.55509128,2.99898798 Z M52.5,9.5 C53.6045695,9.5 54.5,10.3954305 54.5,11.5 C54.5,12.6045695 53.6045695,13.5 52.5,13.5 L12.5,13.5 C11.3954305,13.5 10.5,12.6045695 10.5,11.5 C10.5,10.3954305 11.3954305,9.5 12.5,9.5 L52.5,9.5 Z" fill="#FFFFFF" fill-rule="nonzero"></path>
    </g>
</svg>