<?xml version="1.0" encoding="UTF-8"?>
<svg width="101px" height="140px" viewBox="0 0 101 140" version="1.1" xmlns="http://www.w3.org/2000/svg" xmlns:xlink="http://www.w3.org/1999/xlink">
    <!-- Generator: Sketch 61.2 (89653) - https://sketch.com -->
    <title>icon/iPad-Pro</title>
    <desc>Created with Sketch.</desc>
    <g id="icon/iPad-Pro" stroke="none" stroke-width="1" fill="none" fill-rule="evenodd">
        <g id="iPad-Pro" fill="#FFFFFF" fill-rule="nonzero">
            <path d="M91.2692308,0 C96.3672438,0 100.5,4.47715251 100.5,10 L100.5,130 C100.5,135.522848 96.3672438,140 91.2692308,140 L9.73076923,140 C4.63275615,140 0.5,135.522848 0.5,130 L0.5,10 C0.5,4.47715251 4.63275615,0 9.73076923,0 L91.2692308,0 Z M92.7010217,3.73422475 L8.45222355,3.73422475 C5.90321702,3.73422475 3.83683894,7.23857625 3.83683894,10 L3.83683894,130 C3.83683894,132.761424 5.90321702,136.228215 8.45222355,136.228215 L92.7010217,136.228215 C95.2500282,136.228215 97.3164063,132.761424 97.3164063,130 L97.3164063,10 C97.3164063,7.23857625 95.2500282,3.73422475 92.7010217,3.73422475 Z M62.8191477,130.769231 C63.2376555,130.769231 63.5769231,131.113627 63.5769231,131.538462 C63.5769231,131.963296 63.2376555,132.307692 62.8191477,132.307692 L39.7193138,132.307692 C39.300806,132.307692 38.9615385,131.963296 38.9615385,131.538462 C38.9615385,131.113627 39.300806,130.769231 39.7193138,130.769231 L62.8191477,130.769231 Z M50.5,1.53846154 C50.0751655,1.53846154 49.7307692,1.88285789 49.7307692,2.30769231 C49.7307692,2.73252672 50.0751655,3.07692308 50.5,3.07692308 C50.9248345,3.07692308 51.2692308,2.73252672 51.2692308,2.30769231 C51.2692308,1.88285789 50.9248345,1.53846154 50.5,1.53846154 Z" id="Combined-Shape"></path>
        </g>
    </g>
</svg>