<?xml version="1.0" encoding="UTF-8"?>
<svg width="248px" height="145px" viewBox="0 0 248 145" version="1.1" xmlns="http://www.w3.org/2000/svg" xmlns:xlink="http://www.w3.org/1999/xlink">
    <!-- Generator: Sketch 61.2 (89653) - https://sketch.com -->
    <title>icon/laptop</title>
    <desc>Created with Sketch.</desc>
    <g id="icon/laptop" stroke="none" stroke-width="1" fill="none" fill-rule="evenodd">
        <g id="laptop" fill="#FFFFFF" fill-rule="nonzero">
            <path d="M21,131 L21,3.75 C21,1.67893219 22.6789322,0 24.75,0 L221.75,0 C223.821068,0 225.5,1.67893219 225.5,3.75 L225.5,131 L243.75,131 C245.821068,131 247.5,132.678932 247.5,134.75 L247.5,137.75 C247.5,141.477922 244.477922,144.5 240.75,144.5 L6.75,144.5 C3.02207794,144.5 0,141.477922 0,137.75 L0,134.75 C0,132.678932 1.67893219,131 3.75,131 L21,131 Z M22.5,131 L224,131 L224,3.75 C224,2.50735931 222.992641,1.5 221.75,1.5 L24.75,1.5 C23.5073593,1.5 22.5,2.50735931 22.5,3.75 L22.5,131 Z M21,132.5 L3.75,132.5 C2.50735931,132.5 1.5,133.507359 1.5,134.75 L1.5,137.75 C1.5,140.649495 3.85050506,143 6.75,143 L240.75,143 C243.649495,143 246,140.649495 246,137.75 L246,134.75 C246,133.507359 244.992641,132.5 243.75,132.5 L225.5,132.5 L21,132.5 Z M102.75,135 L144.75,135 C145.854569,135 146.75,135.895431 146.75,137 C146.75,138.104569 145.854569,139 144.75,139 L102.75,139 C101.645431,139 100.75,138.104569 100.75,137 C100.75,135.895431 101.645431,135 102.75,135 Z M102.75,136 C102.197715,136 101.75,136.447715 101.75,137 C101.75,137.552285 102.197715,138 102.75,138 L144.75,138 C145.302285,138 145.75,137.552285 145.75,137 C145.75,136.447715 145.302285,136 144.75,136 L102.75,136 Z M33.75,9.75 L212.75,9.75 C214.959139,9.75 216.75,11.540861 216.75,13.75 L216.75,119.75 C216.75,121.959139 214.959139,123.75 212.75,123.75 L33.75,123.75 C31.540861,123.75 29.75,121.959139 29.75,119.75 L29.75,13.75 C29.75,11.540861 31.540861,9.75 33.75,9.75 Z M33.75,11.25 C32.3692881,11.25 31.25,12.3692881 31.25,13.75 L31.25,119.75 C31.25,121.130712 32.3692881,122.25 33.75,122.25 L212.75,122.25 C214.130712,122.25 215.25,121.130712 215.25,119.75 L215.25,13.75 C215.25,12.3692881 214.130712,11.25 212.75,11.25 L33.75,11.25 Z M123.75,7.25 C122.921573,7.25 122.25,6.57842712 122.25,5.75 C122.25,4.92157288 122.921573,4.25 123.75,4.25 C124.578427,4.25 125.25,4.92157288 125.25,5.75 C125.25,6.57842712 124.578427,7.25 123.75,7.25 Z M123.75,6.25 C124.026142,6.25 124.25,6.02614237 124.25,5.75 C124.25,5.47385763 124.026142,5.25 123.75,5.25 C123.473858,5.25 123.25,5.47385763 123.25,5.75 C123.25,6.02614237 123.473858,6.25 123.75,6.25 Z M128.25,6.25 C127.973858,6.25 127.75,6.02614237 127.75,5.75 C127.75,5.47385763 127.973858,5.25 128.25,5.25 L137.934082,5.25 C138.210224,5.25 138.434082,5.47385763 138.434082,5.75 C138.434082,6.02614237 138.210224,6.25 137.934082,6.25 L128.25,6.25 Z" id="Combined-Shape"></path>
        </g>
    </g>
</svg>