<?xml version="1.0" encoding="UTF-8"?>
<svg width="229px" height="134px" viewBox="0 0 229 134" version="1.1" xmlns="http://www.w3.org/2000/svg" xmlns:xlink="http://www.w3.org/1999/xlink">
    <!-- Generator: Sketch 61.2 (89653) - https://sketch.com -->
    <title>icon/MacBook</title>
    <desc>Created with Sketch.</desc>
    <g id="icon/MacBook" stroke="none" stroke-width="1" fill="none" fill-rule="evenodd">
        <g id="MacBook" fill="#FFFFFF" fill-rule="nonzero">
            <path d="M197.1616,0 C202.558549,0 206.95142,4.3013973 207.098781,9.6627595 L207.1026,9.941 L207.102,120.12 L227.813,120.1206 C228.235769,120.1206 228.584408,120.436718 228.635543,120.844795 L228.642,120.9486 L228.642,126.7476 C228.642,130.330706 225.798954,133.248073 222.246655,133.370594 L222.014,133.3746 L6.626,133.3746 C3.04387234,133.3746 0.126526935,130.53347 0.0040061836,126.980315 L8.52651283e-14,126.7476 L8.52651283e-14,120.9486 C8.52651283e-14,120.526754 0.315266272,120.178186 0.723998179,120.127056 L0.828,120.1206 L21.537,120.12 L21.5376,9.941 C21.5376,4.54405085 25.8389973,0.151179833 31.2003595,0.00381935349 L31.4786,0 L197.1616,0 Z M99.822,121.777 L1.656,121.7776 L1.656,126.7476 C1.656,129.416468 3.76922784,131.600878 6.41070027,131.713998 L6.626,131.7186 L222.014,131.7186 C224.682868,131.7186 226.867278,129.604424 226.980398,126.962902 L226.985,126.7476 L226.985,121.7776 L128.817,121.777 L128.8178,123.4336 C128.8178,125.201462 127.435312,126.64491 125.692826,126.742356 L125.5048,126.7476 L103.1368,126.7476 C101.369903,126.7476 99.9255562,125.365112 99.828047,123.621726 L99.8228,123.4336 L99.822,121.777 Z M127.989,121.777 L100.651,121.777 L100.6518,123.4336 C100.6518,124.74976 101.678462,125.82999 102.973568,125.914303 L103.1368,125.9196 L125.5048,125.9196 C126.82,125.9196 127.900192,124.892016 127.984503,123.596836 L127.9898,123.4336 L127.989,121.777 Z M197.1616,1.657 L31.4786,1.657 C26.9951926,1.657 23.3325218,5.23664472 23.1984049,9.68811695 L23.194,9.941 L23.194,120.12 L205.4456,120.12 L205.4456,9.941 C205.4456,5.373 201.7296,1.657 197.1616,1.657 Z M193.02,7.4561 C196.602128,7.4561 199.520431,10.2981878 199.642992,13.850446 L199.647,14.0831 L199.647,109.3511 C199.647,112.933228 196.804912,115.851531 193.252654,115.974092 L193.02,115.9781 L35.621,115.9781 C32.0378936,115.9781 29.1205274,113.136012 28.9980062,109.583754 L28.994,109.3511 L28.994,14.0831 C28.994,10.5009723 31.8351299,7.58266904 35.3882849,7.46010752 L35.621,7.4561 L193.02,7.4561 Z M193.02,8.2841 L35.621,8.2841 C32.4973721,8.2841 29.9432996,10.766484 29.8261949,13.8610441 L29.822,14.0831 L29.822,109.3511 C29.822,112.474728 32.30343,115.0288 35.3988776,115.145905 L35.621,115.1501 L193.02,115.1501 C196.142651,115.1501 198.697655,112.66867 198.814804,109.573222 L198.819,109.3511 L198.819,14.0831 C198.819,10.8861 196.217,8.2841 193.02,8.2841 Z M114.3209,3.3141 C114.7779,3.3141 115.1489,3.6841 115.1489,4.1421 C115.1489,4.6001 114.7779,4.9711 114.3209,4.9711 C113.8629,4.9711 113.4919,4.6001 113.4919,4.1421 C113.4919,3.6841 113.8629,3.3141 114.3209,3.3141 Z"></path>
        </g>
    </g>
</svg>