<?xml version="1.0" encoding="UTF-8"?>
<svg width="31px" height="38px" viewBox="0 0 31 38" version="1.1" xmlns="http://www.w3.org/2000/svg" xmlns:xlink="http://www.w3.org/1999/xlink">
    <!-- Generator: Sketch 61.2 (89653) - https://sketch.com -->
    <title>icon/microSDcard</title>
    <desc>Created with Sketch.</desc>
    <g id="icon/microSDcard" stroke="none" stroke-width="1" fill="none" fill-rule="evenodd">
        <path d="M22.4688273,0 C24.4018239,0 25.9688273,1.56700338 25.9688273,3.5 L25.9688273,3.5 L25.9686286,15.059 L28.7540636,17.2130011 C29.5538816,17.8316371 30.0442366,18.7634202 30.1060626,19.7657303 L30.1060626,19.7657303 L30.1127085,19.9815021 L30.1127085,34.5 C30.1127085,36.4329966 28.5457051,38 26.6127085,38 L26.6127085,38 L3.5,38 C1.56700338,38 0,36.4329966 0,34.5 L0,34.5 L0,3.5 C0,1.56700338 1.56700338,0 3.5,0 L3.5,0 Z M22.4688273,3 L3.5,3 C3.22385763,3 3,3.22385763 3,3.5 L3,3.5 L3,34.5 C3,34.7761424 3.22385763,35 3.5,35 L3.5,35 L26.6127085,35 C26.8888508,35 27.1127085,34.7761424 27.1127085,34.5 L27.1127085,34.5 L27.1127085,19.9815021 C27.1127085,19.8267346 27.0410375,19.6806912 26.9186163,19.586002 L26.9186163,19.586002 L23.5511036,16.9813286 C23.1838403,16.6972611 22.9688273,16.2591306 22.9688273,15.7948282 L22.9688273,15.7948282 L22.9688273,3.5 C22.9688273,3.22385763 22.7449697,3 22.4688273,3 L22.4688273,3 Z M6.38562855,5 C7.16532467,5 7.80607723,5.59488808 7.87876197,6.35553999 L7.88562855,6.5 L7.88562855,12.6527518 C7.88562855,13.4811789 7.21405568,14.1527518 6.38562855,14.1527518 C5.60593244,14.1527518 4.96517987,13.5578637 4.89249513,12.7972118 L4.88562855,12.6527518 L4.88562855,6.5 C4.88562855,5.67157288 5.55720143,5 6.38562855,5 Z M10.8856286,5 C11.6653247,5 12.3060772,5.59488808 12.378762,6.35553999 L12.3856286,6.5 L12.3856286,12.6527518 C12.3856286,13.4811789 11.7140557,14.1527518 10.8856286,14.1527518 C10.1059324,14.1527518 9.46517987,13.5578637 9.39249513,12.7972118 L9.38562855,12.6527518 L9.38562855,6.5 C9.38562855,5.67157288 10.0572014,5 10.8856286,5 Z M19.8856286,5 C20.6653247,5 21.3060772,5.59488808 21.378762,6.35553999 L21.3856286,6.5 L21.3856286,12.6527518 C21.3856286,13.4811789 20.7140557,14.1527518 19.8856286,14.1527518 C19.1059324,14.1527518 18.4651799,13.5578637 18.3924951,12.7972118 L18.3856286,12.6527518 L18.3856286,6.5 C18.3856286,5.67157288 19.0572014,5 19.8856286,5 Z M15.3856286,5 C16.1653247,5 16.8060772,5.59488808 16.878762,6.35553999 L16.8856286,6.5 L16.8856286,12.6527518 C16.8856286,13.4811789 16.2140557,14.1527518 15.3856286,14.1527518 C14.6059324,14.1527518 13.9651799,13.5578637 13.8924951,12.7972118 L13.8856286,12.6527518 L13.8856286,6.5 C13.8856286,5.67157288 14.5572014,5 15.3856286,5 Z" fill="#FFFFFF" fill-rule="nonzero"></path>
    </g>
</svg>