<?xml version="1.0" encoding="UTF-8"?>
<svg width="47px" height="62px" viewBox="0 0 47 62" version="1.1" xmlns="http://www.w3.org/2000/svg" xmlns:xlink="http://www.w3.org/1999/xlink">
    <!-- Generator: Sketch 61.2 (89653) - https://sketch.com -->
    <title>icon/SD-30_card</title>
    <desc>Created with Sketch.</desc>
    <g id="icon/SD-30_card" stroke="none" stroke-width="1" fill="none" fill-rule="evenodd">
        <path d="M44,0 C45.5976809,0 46.9036609,1.24891996 46.9949073,2.82372721 L47,3 L47,60 C47,61.0543618 46.1841222,61.9181651 45.1492623,61.9945143 L45,62 L2,62 C0.945638205,62 0.0818348781,61.1841222 0.00548573643,60.1492623 L0,60 L0,42.1786202 C0,41.1242584 0.815877791,40.260455 1.85073766,40.1841059 L2,40.1786202 L4.84818994,40.1786202 L4.84818994,24.2275263 L2,24.2275263 C0.945638205,24.2275263 0.0818348781,23.4116485 0.00548573643,22.3767887 L0,22.2275263 L0,10.3791232 C0,9.92567013 0.154022564,9.48745172 0.434056084,9.13500228 L0.544920708,9.00699193 L8.446385,0.627868718 C8.78227697,0.271671423 9.23552741,0.0526199617 9.71894072,0.00833935663 L9.90146429,0 L44,0 Z M10.5,3 L10.333,3 L3,10.776 L3,21.227 L4.84818994,21.2275263 C6.44587083,21.2275263 7.75185082,22.4764463 7.84309725,24.0512535 L7.84818994,24.2275263 L7.84818994,40.1786202 C7.84818994,41.7763011 6.59926998,43.082281 5.02446273,43.1735275 L4.84818994,43.1786202 L3,43.178 L3,59 L44,59 L44,18.814 L12,18.8141937 C11.2203039,18.8141937 10.5795513,18.2193056 10.5068666,17.4586537 L10.5,17.3141937 L10.5,3 Z M38.3441927,50.5 C39.1726198,50.5 39.8441927,51.1715729 39.8441927,52 C39.8441927,52.7796961 39.2493046,53.4204487 38.4886527,53.4931334 L38.3441927,53.5 L10.8461538,53.5 C10.0177267,53.5 9.34615385,52.8284271 9.34615385,52 C9.34615385,51.2203039 9.94104193,50.5795513 10.7016938,50.5068666 L10.8461538,50.5 L38.3441927,50.5 Z M44,3 L40,3 L40,15.814 L44,15.814 L44,3 Z M37,3 L33.75,3 L33.75,15.813 L37,15.813 L37,3 Z M30.75,3 L27,3 L27,15.813 L30.75,15.813 L30.75,3 Z M17.5,3 L13.5,3 L13.5,15.814 L17.5,15.813 L17.5,3 Z M24,3 L20.5,3 L20.5,15.813 L24,15.813 L24,3 Z" fill="#FFFFFF" fill-rule="nonzero"></path>
    </g>
</svg>