<?xml version="1.0" encoding="UTF-8"?>
<svg width="21px" height="24px" viewBox="0 0 21 24" version="1.1" xmlns="http://www.w3.org/2000/svg" xmlns:xlink="http://www.w3.org/1999/xlink">
    <!-- Generator: Sketch 61.2 (89653) - https://sketch.com -->
    <title>icon/windows-logo</title>
    <desc>Created with Sketch.</desc>
    <g id="icon/windows-logo" stroke="none" stroke-width="1" fill="none" fill-rule="evenodd">
        <g fill="#FFFFFF" fill-rule="nonzero" id="Path">
            <path d="M7.19823139,12.80625 L0.789977892,12.80625 C0.353721444,12.80625 0,13.1593614 0,13.5993035 L0,18.7512572 C0,19.1333122 0.271186441,19.440114 0.630803242,19.5153672 L6.84450995,20.7367855 L7.25128961,20.80625 C7.66396463,20.7888839 8,20.4357724 8,20.0247739 L8,13.5993035 C8,13.1535727 7.63448784,12.80625 7.19823139,12.80625 L7.19823139,12.80625 Z"></path>
            <path d="M20.1695883,12.80625 L9.82418768,12.80625 C9.36903926,12.80625 9,13.1761508 9,13.6370107 L9,20.944067 L9,20.9561949 C9,21.289712 9.20297159,21.5686535 9.48590169,21.6959964 C9.498203,21.7081243 9.498203,21.7081243 9.498203,21.7081243 L9.82418768,21.7748277 C9.83648899,21.7748277 9.83648899,21.7748277 9.84263964,21.7748277 L19.9727673,23.7698663 C19.9850687,23.7759303 20.0035206,23.7880582 20.0158219,23.7880582 C20.0219726,23.7880582 20.0281232,23.7880582 20.0342739,23.7819942 C20.0773285,23.80625 20.120383,23.80625 20.1634376,23.80625 C20.6185861,23.80625 21,23.4424132 21,22.9876171 L21,13.6370107 C21.0060773,13.1700868 20.6247367,12.80625 20.1695883,12.80625 L20.1695883,12.80625 Z"></path>
            <path d="M20.1639344,0.80625 C20.1209016,0.80625 20.0778689,0.80625 20.0348361,0.830519167 C20.0286885,0.824451875 20.022541,0.824451875 20.0163934,0.824451875 C20.0040984,0.824451875 19.9856557,0.830519167 19.9733607,0.842653751 L9.84221311,2.83272546 C9.82991803,2.83272546 9.82991803,2.83272546 9.82377049,2.83272546 L9.5102459,2.89946566 C9.5102459,2.89946566 9.49795082,2.89946566 9.48565574,2.91160025 C9.20286885,3.03901338 9,3.33024338 9,3.66394443 L9,10.975031 C9,11.4361452 9.36885246,11.80625 9.82377049,11.80625 L20.1639344,11.80625 C20.6188525,11.80625 21,11.4361452 21,10.975031 L21,1.62533439 C21,1.1763548 20.6188525,0.80625 20.1639344,0.80625 L20.1639344,0.80625 Z"></path>
            <path d="M7.24594993,3.80625 L6.83946981,3.87566432 L0.630338733,5.10198391 C0.270986745,5.17718275 0,5.48376265 0,5.8655414 L0,11.0137699 C0,11.4533939 0.353460972,11.80625 0.789396171,11.80625 L7.1988218,11.80625 C7.634757,11.80625 8,11.4533939 8,11.0137699 L8,4.58716106 C7.99410898,4.17645969 7.66421208,3.82938811 7.24594993,3.80625 L7.24594993,3.80625 Z"></path>
        </g>
    </g>
</svg>